<svg xmlns="http://www.w3.org/2000/svg" xmlns:xlink="http://www.w3.org/1999/xlink" width="500" zoomAndPan="magnify" viewBox="0 0 375 374.999991" height="500" preserveAspectRatio="xMidYMid meet" version="1.0"><defs><g/><clipPath id="d9bc151c97"><path d="M 42.273438 129.839844 L 91.773438 129.839844 L 91.773438 187.589844 L 42.273438 187.589844 Z M 42.273438 129.839844 " clip-rule="nonzero"/></clipPath><clipPath id="ed03f76472"><rect x="0" width="21" y="0" height="27"/></clipPath><clipPath id="85f4bc9dea"><rect x="0" width="19" y="0" height="27"/></clipPath></defs><rect x="-37.5" width="450" fill="#ffffff" y="-37.499999" height="449.999989" fill-opacity="1"/><rect x="-37.5" width="450" fill="#000000" y="-37.499999" height="449.999989" fill-opacity="1"/><g clip-path="url(#d9bc151c97)"><path fill="#ffffff" d="M 64.703125 160.910156 C 64.703125 160.910156 64.664062 161.082031 64.589844 161.410156 C 64.546875 161.578125 64.511719 161.777344 64.464844 162.011719 C 64.414062 162.242188 64.371094 162.523438 64.320312 162.839844 C 64.117188 164.097656 63.910156 165.980469 64.003906 168.367188 C 64.054688 169.5625 64.179688 170.882812 64.464844 172.285156 C 64.597656 172.988281 64.792969 173.707031 65.015625 174.441406 C 65.246094 175.171875 65.535156 175.910156 65.882812 176.644531 C 66.59375 178.101562 67.589844 179.539062 68.984375 180.644531 C 69.679688 181.1875 70.472656 181.640625 71.34375 181.96875 C 71.554688 182.066406 71.78125 182.125 72.007812 182.195312 L 72.175781 182.246094 L 72.261719 182.273438 L 72.300781 182.285156 C 72.253906 182.273438 72.316406 182.289062 72.316406 182.289062 C 72.441406 182.316406 72.566406 182.34375 72.691406 182.371094 C 72.945312 182.425781 73.195312 182.480469 73.449219 182.535156 C 73.578125 182.566406 73.695312 182.578125 73.816406 182.59375 C 73.9375 182.613281 74.058594 182.628906 74.183594 182.644531 C 74.425781 182.675781 74.664062 182.71875 74.917969 182.738281 C 75.175781 182.757812 75.429688 182.777344 75.691406 182.796875 C 75.820312 182.808594 75.949219 182.820312 76.078125 182.828125 C 76.210938 182.832031 76.339844 182.835938 76.472656 182.839844 C 76.738281 182.847656 77 182.855469 77.269531 182.863281 C 77.804688 182.867188 78.34375 182.867188 78.894531 182.859375 C 79.449219 182.847656 80.007812 182.832031 80.566406 182.820312 C 81.132812 182.804688 81.707031 182.792969 82.289062 182.785156 C 82.425781 182.785156 82.5625 182.78125 82.699219 182.777344 L 82.917969 182.773438 C 82.984375 182.769531 83.023438 182.761719 83.078125 182.757812 C 83.296875 182.730469 83.519531 182.679688 83.707031 182.605469 C 84.082031 182.453125 84.34375 182.207031 84.511719 181.835938 C 84.679688 181.464844 84.738281 180.976562 84.703125 180.480469 C 84.683594 180.230469 84.644531 179.980469 84.578125 179.738281 C 84.570312 179.707031 84.5625 179.679688 84.554688 179.648438 L 84.53125 179.570312 L 84.496094 179.464844 L 84.46875 179.386719 C 84.421875 179.269531 84.371094 179.144531 84.3125 179.015625 C 84.195312 178.761719 84.0625 178.496094 83.925781 178.207031 C 83.855469 178.0625 83.785156 177.910156 83.714844 177.742188 C 83.648438 177.566406 83.574219 177.398438 83.53125 177.085938 C 83.519531 177.003906 83.511719 176.910156 83.523438 176.789062 C 83.53125 176.722656 83.539062 176.664062 83.566406 176.578125 C 83.585938 176.507812 83.621094 176.417969 83.671875 176.332031 C 83.71875 176.25 83.792969 176.160156 83.867188 176.09375 C 83.9375 176.03125 84.035156 175.964844 84.105469 175.933594 C 84.207031 175.886719 84.242188 175.875 84.242188 175.875 L 84.296875 175.855469 C 84.316406 175.847656 84.332031 175.839844 84.335938 175.835938 L 84.363281 175.824219 C 84.378906 175.820312 84.40625 175.804688 84.429688 175.792969 C 84.476562 175.769531 84.527344 175.742188 84.578125 175.714844 C 84.773438 175.597656 84.945312 175.453125 85.050781 175.316406 C 85.105469 175.246094 85.144531 175.183594 85.160156 175.132812 C 85.1875 175.074219 85.1875 175.035156 85.1875 174.988281 L 85.1875 174.957031 C 85.1875 174.949219 85.191406 174.988281 85.183594 174.941406 L 85.175781 174.882812 C 85.171875 174.867188 85.171875 174.875 85.167969 174.851562 C 85.164062 174.835938 85.15625 174.816406 85.148438 174.796875 C 85.125 174.722656 85.085938 174.640625 85.027344 174.546875 C 84.972656 174.457031 84.898438 174.359375 84.804688 174.234375 C 84.753906 174.167969 84.699219 174.105469 84.628906 173.992188 C 84.589844 173.933594 84.546875 173.871094 84.496094 173.753906 C 84.472656 173.683594 84.445312 173.621094 84.425781 173.503906 C 84.40625 173.40625 84.394531 173.25 84.441406 173.082031 C 84.480469 172.921875 84.582031 172.757812 84.671875 172.664062 C 84.765625 172.5625 84.855469 172.503906 84.921875 172.464844 C 84.996094 172.425781 85.054688 172.398438 85.101562 172.382812 L 85.164062 172.359375 L 85.21875 172.335938 L 85.289062 172.300781 C 85.375 172.257812 85.457031 172.203125 85.527344 172.144531 C 85.671875 172.019531 85.769531 171.886719 85.808594 171.757812 C 85.855469 171.628906 85.859375 171.476562 85.816406 171.304688 C 85.796875 171.230469 85.757812 171.113281 85.703125 171 C 85.65625 170.886719 85.585938 170.761719 85.515625 170.628906 L 85.277344 170.191406 C 85.195312 170.035156 85.101562 169.851562 85.023438 169.609375 C 84.980469 169.492188 84.945312 169.339844 84.929688 169.167969 C 84.929688 169.074219 84.921875 168.988281 84.933594 168.882812 C 84.941406 168.828125 84.953125 168.777344 84.964844 168.722656 C 84.988281 168.640625 84.960938 168.679688 85.03125 168.503906 L 85.054688 168.445312 C 85.070312 168.417969 85.058594 168.429688 85.09375 168.371094 C 85.148438 168.265625 85.21875 168.15625 85.289062 168.078125 C 85.339844 168.015625 85.394531 167.960938 85.453125 167.902344 C 85.507812 167.855469 85.5625 167.8125 85.617188 167.769531 C 85.828125 167.617188 86.03125 167.511719 86.214844 167.429688 C 86.402344 167.347656 86.578125 167.28125 86.75 167.226562 C 87.097656 167.109375 87.425781 167.019531 87.746094 166.929688 L 88.226562 166.800781 L 88.398438 166.753906 C 88.429688 166.746094 88.339844 166.773438 88.40625 166.75 L 88.582031 166.691406 C 88.605469 166.683594 88.617188 166.679688 88.621094 166.675781 C 88.648438 166.652344 88.671875 166.644531 88.707031 166.625 L 88.832031 166.542969 C 88.875 166.511719 88.914062 166.480469 88.957031 166.445312 C 88.996094 166.410156 89.035156 166.371094 89.074219 166.332031 C 89.222656 166.171875 89.351562 165.972656 89.445312 165.757812 C 89.542969 165.542969 89.601562 165.3125 89.621094 165.09375 L 89.628906 164.933594 L 89.617188 164.789062 L 89.601562 164.722656 L 89.597656 164.691406 C 89.628906 164.792969 89.59375 164.683594 89.597656 164.691406 L 89.558594 164.574219 C 89.546875 164.535156 89.535156 164.484375 89.523438 164.46875 C 89.503906 164.425781 89.484375 164.382812 89.464844 164.339844 L 89.371094 164.148438 C 89.308594 164.019531 89.222656 163.878906 89.152344 163.746094 C 88.992188 163.472656 88.824219 163.191406 88.648438 162.910156 C 88.296875 162.339844 87.929688 161.761719 87.578125 161.15625 C 87.226562 160.542969 86.882812 159.914062 86.605469 159.1875 C 86.53125 159.011719 86.480469 158.808594 86.417969 158.621094 L 86.289062 158.082031 C 86.269531 157.996094 86.25 157.925781 86.234375 157.824219 L 86.1875 157.53125 C 86.160156 157.335938 86.117188 157.132812 86.109375 156.949219 C 86.027344 156.199219 86.042969 155.457031 86.089844 154.726562 C 86.191406 153.261719 86.507812 151.859375 86.738281 150.539062 C 86.792969 150.210938 86.84375 149.890625 86.871094 149.585938 C 86.882812 149.4375 86.902344 149.28125 86.894531 149.148438 L 86.894531 149.042969 L 86.898438 148.992188 C 86.898438 148.988281 86.894531 148.925781 86.898438 148.972656 L 86.878906 148.714844 L 86.804688 147.675781 C 86.765625 147.34375 86.710938 147.039062 86.667969 146.71875 C 86.457031 145.445312 86.101562 144.160156 85.59375 142.960938 C 85.066406 141.761719 84.394531 140.632812 83.589844 139.605469 C 82.785156 138.574219 81.847656 137.644531 80.820312 136.824219 C 79.789062 136.007812 78.65625 135.316406 77.472656 134.726562 C 76.289062 134.140625 75.050781 133.664062 73.78125 133.289062 C 72.511719 132.921875 71.210938 132.664062 69.90625 132.5 C 67.289062 132.164062 64.644531 132.253906 62.121094 132.714844 C 60.855469 132.941406 59.628906 133.28125 58.449219 133.730469 L 57.984375 133.902344 L 57.753906 133.988281 L 57.542969 134.082031 C 57.265625 134.207031 56.988281 134.332031 56.710938 134.457031 C 56.574219 134.515625 56.433594 134.589844 56.296875 134.664062 L 55.886719 134.878906 C 55.609375 135.027344 55.332031 135.164062 55.070312 135.332031 C 54.808594 135.492188 54.542969 135.65625 54.28125 135.816406 C 54.023438 135.980469 53.777344 136.167969 53.527344 136.34375 L 53.148438 136.605469 C 53.023438 136.695312 52.910156 136.796875 52.789062 136.890625 C 52.554688 137.082031 52.316406 137.273438 52.082031 137.460938 C 51.855469 137.664062 51.632812 137.871094 51.410156 138.074219 L 51.078125 138.382812 L 50.769531 138.707031 C 50.5625 138.925781 50.355469 139.140625 50.148438 139.355469 C 49.957031 139.585938 49.765625 139.8125 49.578125 140.042969 L 49.292969 140.382812 L 49.035156 140.742188 C 48.859375 140.980469 48.6875 141.21875 48.515625 141.453125 C 48.359375 141.703125 48.207031 141.949219 48.050781 142.195312 L 47.820312 142.566406 C 47.746094 142.6875 47.683594 142.820312 47.613281 142.945312 C 47.476562 143.203125 47.339844 143.457031 47.207031 143.710938 C 47.074219 143.964844 46.96875 144.230469 46.847656 144.488281 C 46.597656 145.003906 46.421875 145.542969 46.226562 146.070312 C 46.121094 146.332031 46.058594 146.605469 45.976562 146.871094 C 45.902344 147.140625 45.820312 147.40625 45.75 147.675781 C 45.691406 147.945312 45.636719 148.21875 45.578125 148.488281 L 45.492188 148.890625 L 45.480469 148.941406 C 45.480469 148.9375 45.46875 149.011719 45.476562 148.949219 L 45.460938 149.058594 L 45.429688 149.273438 C 45.390625 149.566406 45.347656 149.851562 45.308594 150.140625 C 45.289062 150.28125 45.265625 150.425781 45.246094 150.566406 C 45.222656 150.710938 45.222656 150.835938 45.210938 150.972656 C 45.1875 151.238281 45.167969 151.503906 45.144531 151.769531 C 45.125 152.03125 45.097656 152.292969 45.097656 152.566406 C 45.015625 154.71875 45.175781 156.8125 45.523438 158.789062 C 45.878906 160.761719 46.414062 162.609375 47.082031 164.339844 C 47.160156 164.550781 47.242188 164.757812 47.320312 164.964844 C 47.398438 165.171875 47.496094 165.386719 47.582031 165.597656 C 47.761719 166.019531 47.925781 166.429688 48.109375 166.84375 C 48.46875 167.671875 48.824219 168.480469 49.164062 169.261719 C 49.335938 169.648438 49.5 170.050781 49.660156 170.441406 C 49.820312 170.832031 49.984375 171.207031 50.125 171.601562 C 50.269531 171.988281 50.410156 172.367188 50.546875 172.738281 C 50.679688 173.117188 50.789062 173.5 50.910156 173.871094 C 50.964844 174.054688 51.023438 174.238281 51.082031 174.417969 L 51.101562 174.488281 C 51.109375 174.511719 51.101562 174.476562 51.121094 174.554688 L 51.128906 174.585938 L 51.160156 174.714844 C 51.183594 174.804688 51.207031 174.890625 51.226562 174.976562 C 51.3125 175.320312 51.402344 175.644531 51.480469 175.984375 C 51.628906 176.691406 51.78125 177.375 51.871094 178 C 52.289062 180.523438 52.351562 182.523438 52.371094 183.878906 C 52.386719 184.558594 52.367188 185.078125 52.363281 185.429688 C 52.355469 185.777344 52.351562 185.960938 52.351562 185.960938 C 52.335938 186.808594 51.636719 187.480469 50.789062 187.464844 C 49.941406 187.449219 49.269531 186.746094 49.285156 185.902344 L 49.285156 185.824219 C 49.285156 185.824219 49.292969 185.65625 49.304688 185.332031 C 49.316406 185.003906 49.34375 184.519531 49.339844 183.890625 C 49.347656 182.628906 49.300781 180.773438 48.953125 178.464844 C 48.878906 177.875 48.75 177.300781 48.636719 176.679688 C 48.566406 176.363281 48.476562 176.019531 48.398438 175.679688 C 48.375 175.59375 48.355469 175.507812 48.335938 175.417969 L 48.304688 175.289062 L 48.296875 175.257812 C 48.308594 175.3125 48.292969 175.253906 48.292969 175.257812 L 48.277344 175.195312 C 48.226562 175.035156 48.175781 174.867188 48.125 174.703125 C 48.023438 174.367188 47.925781 174.027344 47.8125 173.679688 C 47.6875 173.332031 47.558594 172.980469 47.429688 172.617188 C 47.304688 172.257812 47.148438 171.890625 47 171.519531 C 46.851562 171.144531 46.703125 170.765625 46.535156 170.378906 C 46.203125 169.59375 45.859375 168.785156 45.503906 167.953125 C 45.328125 167.539062 45.152344 167.097656 44.972656 166.660156 C 44.882812 166.4375 44.792969 166.222656 44.703125 165.992188 C 44.617188 165.757812 44.53125 165.519531 44.441406 165.285156 C 43.753906 163.441406 43.1875 161.410156 42.824219 159.25 C 42.464844 157.09375 42.308594 154.804688 42.425781 152.445312 C 42.429688 152.152344 42.460938 151.847656 42.488281 151.542969 C 42.515625 151.242188 42.542969 150.9375 42.574219 150.628906 C 42.589844 150.480469 42.597656 150.316406 42.621094 150.175781 C 42.640625 150.035156 42.664062 149.890625 42.6875 149.75 C 42.730469 149.464844 42.773438 149.175781 42.820312 148.886719 L 42.851562 148.671875 L 42.867188 148.5625 C 42.886719 148.464844 42.878906 148.503906 42.886719 148.464844 L 42.898438 148.410156 C 42.933594 148.257812 42.964844 148.105469 43 147.953125 C 43.070312 147.648438 43.136719 147.339844 43.207031 147.03125 C 43.289062 146.730469 43.382812 146.429688 43.472656 146.125 C 43.566406 145.820312 43.640625 145.511719 43.765625 145.214844 C 43.992188 144.621094 44.199219 144.011719 44.488281 143.429688 C 44.625 143.136719 44.75 142.839844 44.902344 142.550781 C 45.058594 142.265625 45.214844 141.976562 45.371094 141.691406 C 45.449219 141.546875 45.523438 141.402344 45.609375 141.261719 L 45.875 140.847656 C 46.054688 140.570312 46.230469 140.292969 46.410156 140.015625 C 46.605469 139.75 46.804688 139.484375 47 139.214844 L 47.300781 138.8125 L 47.625 138.433594 C 47.839844 138.179688 48.058594 137.921875 48.273438 137.667969 C 48.507812 137.425781 48.742188 137.183594 48.976562 136.945312 L 49.332031 136.582031 L 49.707031 136.242188 C 49.960938 136.015625 50.210938 135.785156 50.464844 135.5625 C 50.734375 135.351562 51 135.140625 51.269531 134.925781 C 51.402344 134.824219 51.535156 134.710938 51.671875 134.613281 L 52.097656 134.320312 C 52.378906 134.128906 52.65625 133.925781 52.949219 133.742188 C 53.246094 133.566406 53.539062 133.390625 53.835938 133.210938 C 54.128906 133.027344 54.441406 132.875 54.75 132.714844 L 55.214844 132.476562 C 55.367188 132.398438 55.519531 132.316406 55.6875 132.25 C 56.015625 132.105469 56.34375 131.964844 56.671875 131.820312 L 56.917969 131.714844 L 57.152344 131.628906 L 57.621094 131.460938 C 58.9375 130.976562 60.308594 130.613281 61.699219 130.375 C 64.480469 129.898438 67.359375 129.832031 70.199219 130.226562 C 71.621094 130.417969 73.035156 130.714844 74.421875 131.132812 C 75.804688 131.554688 77.164062 132.09375 78.464844 132.753906 C 79.769531 133.417969 81.019531 134.203125 82.171875 135.128906 C 83.320312 136.058594 84.367188 137.121094 85.269531 138.304688 C 86.175781 139.484375 86.929688 140.78125 87.511719 142.148438 L 87.902344 143.191406 C 87.972656 143.363281 88.019531 143.542969 88.070312 143.71875 L 88.226562 144.253906 C 88.273438 144.429688 88.335938 144.605469 88.371094 144.785156 L 88.488281 145.328125 C 88.5625 145.6875 88.648438 146.042969 88.6875 146.421875 C 88.734375 146.792969 88.792969 147.175781 88.832031 147.535156 L 88.894531 148.578125 L 88.914062 148.835938 C 88.917969 148.929688 88.914062 148.90625 88.914062 148.949219 L 88.914062 149.027344 L 88.910156 149.183594 C 88.914062 149.398438 88.886719 149.585938 88.871094 149.78125 C 88.832031 150.167969 88.769531 150.53125 88.707031 150.886719 C 88.574219 151.566406 88.445312 152.246094 88.3125 152.925781 C 88.195312 153.585938 88.089844 154.234375 88.042969 154.875 C 87.996094 155.515625 87.976562 156.148438 88.039062 156.761719 C 88.042969 156.839844 88.050781 156.917969 88.0625 156.984375 L 88.089844 157.199219 L 88.121094 157.414062 C 88.121094 157.445312 88.132812 157.488281 88.140625 157.53125 L 88.167969 157.65625 L 88.269531 158.117188 C 88.316406 158.25 88.34375 158.382812 88.402344 158.519531 C 88.605469 159.070312 88.902344 159.644531 89.222656 160.210938 C 89.546875 160.78125 89.898438 161.347656 90.25 161.929688 C 90.425781 162.222656 90.605469 162.519531 90.777344 162.828125 C 90.863281 162.992188 90.953125 163.140625 91.035156 163.316406 C 91.078125 163.402344 91.117188 163.480469 91.160156 163.578125 C 91.207031 163.6875 91.25 163.796875 91.292969 163.910156 C 91.320312 163.972656 91.324219 164.003906 91.339844 164.046875 L 91.375 164.164062 C 91.386719 164.214844 91.371094 164.144531 91.40625 164.289062 L 91.453125 164.558594 C 91.464844 164.679688 91.46875 164.796875 91.476562 164.914062 C 91.472656 165.027344 91.46875 165.144531 91.460938 165.253906 C 91.417969 165.703125 91.296875 166.121094 91.121094 166.511719 C 90.941406 166.90625 90.703125 167.269531 90.398438 167.589844 L 90.15625 167.820312 C 90.066406 167.890625 89.976562 167.960938 89.886719 168.03125 C 89.792969 168.09375 89.695312 168.152344 89.597656 168.214844 C 89.488281 168.273438 89.359375 168.328125 89.238281 168.382812 C 89.203125 168.398438 89.175781 168.40625 89.160156 168.410156 L 88.984375 168.46875 C 89.011719 168.460938 88.882812 168.503906 88.875 168.503906 L 88.691406 168.550781 L 88.214844 168.675781 C 87.898438 168.757812 87.59375 168.839844 87.316406 168.929688 C 87.179688 168.976562 87.046875 169.023438 86.9375 169.070312 C 86.820312 169.117188 86.734375 169.171875 86.679688 169.207031 L 86.652344 169.226562 L 86.648438 169.230469 C 86.664062 169.210938 86.695312 169.171875 86.703125 169.132812 C 86.710938 169.105469 86.691406 169.15625 86.6875 169.164062 L 86.660156 169.222656 C 86.710938 169.082031 86.6875 169.164062 86.699219 169.121094 L 86.703125 169.078125 C 86.707031 169.054688 86.710938 169.050781 86.707031 169.035156 C 86.707031 169.027344 86.703125 169.035156 86.714844 169.070312 C 86.734375 169.136719 86.785156 169.25 86.851562 169.375 L 87.074219 169.792969 C 87.152344 169.949219 87.238281 170.105469 87.316406 170.289062 C 87.398438 170.472656 87.46875 170.660156 87.527344 170.898438 C 87.636719 171.347656 87.632812 171.863281 87.457031 172.339844 C 87.289062 172.816406 86.976562 173.203125 86.632812 173.488281 C 86.457031 173.628906 86.273438 173.746094 86.074219 173.847656 L 85.996094 173.886719 L 85.90625 173.925781 L 85.820312 173.960938 L 85.761719 173.980469 C 85.773438 173.976562 85.675781 174.011719 85.714844 174 C 85.722656 173.996094 85.746094 173.988281 85.785156 173.964844 C 85.816406 173.945312 85.871094 173.914062 85.941406 173.839844 C 86.003906 173.773438 86.085938 173.644531 86.113281 173.523438 C 86.148438 173.390625 86.136719 173.277344 86.128906 173.214844 C 86.113281 173.136719 86.101562 173.113281 86.089844 173.082031 C 86.070312 173.039062 86.070312 173.042969 86.074219 173.050781 C 86.089844 173.074219 86.132812 173.132812 86.175781 173.191406 C 86.273438 173.320312 86.390625 173.476562 86.496094 173.652344 C 86.605469 173.832031 86.703125 174.03125 86.777344 174.257812 C 86.796875 174.3125 86.8125 174.367188 86.828125 174.425781 C 86.84375 174.480469 86.859375 174.566406 86.867188 174.625 L 86.878906 174.683594 C 86.878906 174.675781 86.886719 174.753906 86.886719 174.789062 C 86.894531 174.855469 86.894531 174.921875 86.898438 174.988281 C 86.902344 175.535156 86.660156 176.039062 86.378906 176.378906 C 86.09375 176.730469 85.769531 176.972656 85.433594 177.171875 C 85.347656 177.21875 85.261719 177.269531 85.171875 177.3125 C 85.125 177.332031 85.085938 177.351562 85.027344 177.378906 L 84.945312 177.410156 C 84.914062 177.421875 84.894531 177.433594 84.878906 177.4375 L 84.824219 177.457031 C 84.785156 177.46875 84.785156 177.472656 84.855469 177.441406 C 84.941406 177.402344 85.058594 177.300781 85.117188 177.195312 C 85.148438 177.144531 85.167969 177.089844 85.179688 177.054688 C 85.191406 177.007812 85.195312 176.984375 85.199219 176.960938 C 85.203125 176.914062 85.199219 176.898438 85.199219 176.890625 C 85.195312 176.886719 85.226562 177.007812 85.273438 177.117188 C 85.320312 177.234375 85.375 177.363281 85.4375 177.496094 C 85.5625 177.757812 85.699219 178.039062 85.832031 178.339844 C 85.898438 178.488281 85.960938 178.644531 86.023438 178.8125 L 86.070312 178.949219 L 86.105469 179.058594 L 86.148438 179.199219 C 86.160156 179.242188 86.171875 179.285156 86.183594 179.328125 C 86.269531 179.671875 86.320312 180.019531 86.34375 180.367188 C 86.382812 181.066406 86.316406 181.800781 85.992188 182.515625 C 85.824219 182.867188 85.59375 183.203125 85.296875 183.480469 C 85 183.757812 84.652344 183.964844 84.296875 184.101562 C 83.941406 184.242188 83.59375 184.3125 83.234375 184.347656 C 83.144531 184.355469 83.042969 184.367188 82.964844 184.371094 L 82.75 184.375 C 82.597656 184.375 82.449219 184.378906 82.296875 184.378906 C 81.730469 184.378906 81.164062 184.382812 80.597656 184.394531 C 80.03125 184.402344 79.46875 184.410156 78.914062 184.417969 C 78.351562 184.417969 77.792969 184.414062 77.238281 184.40625 C 76.960938 184.394531 76.683594 184.382812 76.40625 184.371094 C 76.269531 184.367188 76.128906 184.359375 75.992188 184.355469 C 75.855469 184.34375 75.71875 184.332031 75.582031 184.320312 C 75.304688 184.296875 75.03125 184.273438 74.761719 184.25 C 74.488281 184.222656 74.207031 184.171875 73.933594 184.132812 C 73.792969 184.113281 73.65625 184.089844 73.519531 184.070312 C 73.382812 184.050781 73.242188 184.03125 73.121094 184 C 72.867188 183.941406 72.617188 183.886719 72.367188 183.828125 C 72.242188 183.800781 72.117188 183.769531 71.992188 183.742188 C 71.960938 183.734375 71.992188 183.742188 71.914062 183.722656 L 71.867188 183.707031 L 71.769531 183.679688 L 71.574219 183.617188 C 71.316406 183.53125 71.054688 183.460938 70.808594 183.347656 C 69.804688 182.957031 68.882812 182.417969 68.082031 181.777344 C 67.28125 181.136719 66.605469 180.398438 66.035156 179.625 C 65.46875 178.855469 65.003906 178.050781 64.625 177.246094 C 64.25 176.4375 63.949219 175.636719 63.707031 174.847656 C 63.476562 174.058594 63.277344 173.289062 63.144531 172.542969 C 62.855469 171.054688 62.742188 169.667969 62.699219 168.417969 C 62.625 165.914062 62.859375 163.957031 63.085938 162.636719 C 63.140625 162.304688 63.195312 162.011719 63.25 161.757812 C 63.300781 161.503906 63.347656 161.289062 63.386719 161.128906 C 63.46875 160.796875 63.507812 160.628906 63.507812 160.628906 C 63.585938 160.296875 63.917969 160.09375 64.25 160.175781 C 64.578125 160.253906 64.78125 160.582031 64.703125 160.910156 " fill-opacity="1" fill-rule="nonzero"/></g><path fill="#046307" d="M 73.367188 141.234375 C 73.460938 140.246094 71.214844 142.863281 70.273438 143.71875 C 68.96875 144.902344 67.78125 146.222656 66.351562 147.261719 C 63.953125 149.003906 64.441406 152.328125 66.707031 154.429688 C 69.480469 157.007812 73.269531 157.144531 74.421875 152.792969 C 74.589844 152.160156 74.691406 151.480469 74.644531 150.828125 C 74.550781 149.492188 73.789062 148.210938 73.566406 146.867188 C 73.410156 145.925781 73.304688 144.921875 73.386719 143.945312 C 73.472656 142.933594 73.273438 142.242188 73.367188 141.234375 " fill-opacity="1" fill-rule="nonzero"/><path fill="#ffffff" d="M 74.109375 148.324219 C 75.121094 151.929688 74.800781 156.40625 69.546875 156 C 69.113281 155.964844 68.699219 155.871094 68.296875 155.746094 C 68.390625 155.476562 68.476562 155.210938 68.554688 154.957031 C 68.875 153.894531 69.183594 152.828125 69.515625 151.765625 C 69.980469 150.257812 71.441406 148 71.714844 146.492188 C 71.742188 146.324219 71.09375 147.105469 71 147.234375 C 69.152344 149.800781 68.726562 151.324219 68.277344 153.367188 C 68.113281 154.128906 67.921875 154.847656 67.679688 155.53125 C 67.058594 155.257812 66.492188 154.871094 66.011719 154.359375 C 64.527344 152.78125 63.730469 150.53125 65.011719 148.585938 C 66.296875 146.636719 68.566406 145.527344 70.449219 144.269531 C 71 143.90625 71.539062 143.523438 72.070312 143.132812 C 72.347656 142.925781 73.5625 141.433594 73.632812 141.109375 C 73.15625 143.273438 73.5 146.152344 74.109375 148.324219 Z M 74.339844 138.660156 C 72.941406 140.519531 73.0625 140.855469 71.183594 142.347656 C 69.398438 143.769531 67.390625 144.941406 65.917969 146.707031 C 64.929688 147.886719 63.917969 149.132812 63.800781 150.539062 C 63.710938 151.652344 64.203125 152.699219 64.644531 153.691406 C 65.171875 154.875 66.160156 155.839844 67.277344 156.507812 C 66.789062 157.519531 66.109375 158.425781 65.074219 159.203125 C 64.96875 159.28125 65.058594 159.421875 65.175781 159.394531 C 66.480469 159.105469 67.300781 158.015625 67.863281 156.8125 C 69.804688 157.652344 72.851562 157.1875 74.148438 155.511719 C 75.566406 153.6875 75.855469 151.453125 75.324219 149.226562 C 74.8125 147.074219 74.625 144.863281 74.566406 142.65625 C 74.53125 141.355469 74.613281 140.007812 74.433594 138.691406 C 74.425781 138.648438 74.371094 138.621094 74.339844 138.660156 " fill-opacity="1" fill-rule="nonzero"/><path fill="#046307" d="M 53.914062 151.304688 C 53.199219 151.378906 52.488281 151.449219 51.765625 151.46875 C 51.515625 151.472656 51.460938 151.84375 51.683594 151.941406 C 52.632812 152.355469 53.402344 152.929688 54.128906 153.550781 C 54.5625 154.332031 55.453125 154.621094 56.039062 155.246094 C 56.734375 155.984375 57.238281 156.679688 58.1875 157.148438 C 59.183594 157.644531 59.949219 157.542969 61.019531 157.1875 C 62.8125 156.601562 63.378906 154.902344 62.871094 153.230469 C 62.210938 151.042969 59.78125 150.601562 57.941406 150.496094 C 56.648438 150.421875 55.304688 151.15625 54.015625 151.292969 C 53.984375 151.300781 53.945312 151.296875 53.914062 151.304688 " fill-opacity="1" fill-rule="nonzero"/><path fill="#ffffff" d="M 50.40625 151.660156 C 52.808594 153.503906 54.816406 155.835938 57.359375 157.507812 C 59.414062 158.859375 61.109375 157.839844 62.785156 156.417969 C 62.796875 156.40625 62.792969 156.382812 62.773438 156.382812 C 60.644531 156.511719 58.996094 158.515625 57.007812 156.535156 C 55.640625 155.167969 54.113281 153.160156 52.398438 152.226562 C 51.914062 151.960938 51.398438 151.636719 50.910156 151.347656 C 50.734375 151.242188 51.796875 151.46875 52.035156 151.457031 C 53.09375 151.40625 54.066406 151.097656 55.085938 150.863281 C 56.988281 150.421875 58.808594 150.015625 60.667969 150.941406 C 61.449219 151.328125 62.609375 152.316406 62.910156 153 C 63.109375 153.460938 63.011719 154.613281 63.132812 155.261719 C 63.21875 155.738281 63.890625 155.808594 64 155.300781 C 64.617188 152.433594 62.429688 150.613281 59.960938 149.777344 C 57.019531 148.785156 53.40625 150.726562 50.53125 151.269531 C 50.351562 151.300781 50.238281 151.53125 50.40625 151.660156 " fill-opacity="1" fill-rule="nonzero"/><path fill="#ffffff" d="M 56.59375 153.0625 C 57.871094 154.519531 61.6875 153.03125 63.71875 156.171875 C 64.566406 157.488281 64.765625 157.824219 64.765625 159.082031 C 64.765625 159.253906 64.578125 159.246094 64.558594 159.132812 C 64.53125 158.976562 64.46875 158.789062 64.332031 158.367188 C 64.082031 157.609375 63.851562 157.167969 63.347656 156.535156 C 62.980469 156.070312 62.621094 155.589844 62.0625 155.355469 C 61.613281 155.160156 61.144531 155.03125 60.667969 154.898438 C 59.597656 154.605469 58.472656 154.398438 57.460938 153.925781 C 57.089844 153.753906 56.636719 153.523438 56.464844 153.125 C 56.429688 153.042969 56.542969 153.007812 56.59375 153.0625 " fill-opacity="1" fill-rule="nonzero"/><g transform="matrix(1, 0, 0, 1, 50, 156)"><g clip-path="url(#ed03f76472)"><g fill="#ffffff" fill-opacity="1"><g transform="translate(1.660484, 17.168052)"><g><path d="M 0.734375 0 L 0.734375 -0.28125 C 0.734375 -0.539062 0.847656 -0.703125 1.078125 -0.765625 C 1.140625 -0.785156 1.207031 -0.796875 1.28125 -0.796875 L 2.078125 -0.84375 L 2.078125 -10.96875 L 0.796875 -11.0625 C 0.753906 -11.582031 0.921875 -11.84375 1.296875 -11.84375 L 8.671875 -11.84375 L 8.671875 -9.375 C 8.671875 -9.007812 8.414062 -8.851562 7.90625 -8.90625 L 7.734375 -10.875 L 3.34375 -10.96875 L 3.34375 -6.296875 L 6.703125 -6.515625 C 6.773438 -6.085938 6.773438 -5.671875 6.703125 -5.265625 L 3.34375 -5.453125 L 3.34375 -0.875 L 7.96875 -1 L 8.140625 -2.84375 C 8.660156 -2.894531 8.921875 -2.738281 8.921875 -2.375 L 8.921875 0 Z M 0.734375 0 "/></g></g></g></g></g><g transform="matrix(1, 0, 0, 1, 65, 156)"><g clip-path="url(#85f4bc9dea)"><g fill="#ffffff" fill-opacity="1"><g transform="translate(1.304434, 17.168052)"><g><path d="M 8.65625 -11.84375 L 8.65625 -9.5 C 8.65625 -9.144531 8.398438 -8.992188 7.890625 -9.046875 L 7.6875 -10.9375 L 3.359375 -10.96875 L 3.359375 -6.484375 L 6.71875 -6.71875 C 6.78125 -6.320312 6.78125 -5.898438 6.71875 -5.453125 L 3.359375 -5.640625 L 3.359375 -0.875 L 4.875 -0.765625 C 4.925781 -0.253906 4.769531 0 4.40625 0 L 0.734375 0 C 0.734375 0 0.734375 -0.046875 0.734375 -0.140625 C 0.734375 -0.441406 0.816406 -0.640625 0.984375 -0.734375 C 1.054688 -0.765625 1.15625 -0.785156 1.28125 -0.796875 L 2.078125 -0.84375 L 2.078125 -10.96875 L 0.796875 -11.0625 C 0.753906 -11.582031 0.921875 -11.84375 1.296875 -11.84375 Z M 8.65625 -11.84375 "/></g></g></g></g></g><g fill="#ffffff" fill-opacity="1"><g transform="translate(91.500627, 171.549994)"><g><path d="M 1.6875 0 L 1.6875 -0.640625 C 1.6875 -1.222656 1.953125 -1.597656 2.484375 -1.765625 C 2.617188 -1.816406 2.765625 -1.84375 2.921875 -1.84375 L 4.765625 -1.921875 L 4.765625 -25.078125 L 1.84375 -25.3125 C 1.738281 -26.488281 2.109375 -27.078125 2.953125 -27.078125 L 19.84375 -27.078125 L 19.84375 -21.4375 C 19.84375 -20.613281 19.253906 -20.253906 18.078125 -20.359375 L 17.6875 -24.875 L 7.640625 -25.078125 L 7.640625 -14.40625 L 15.3125 -14.921875 C 15.5 -13.929688 15.5 -12.972656 15.3125 -12.046875 L 7.640625 -12.484375 L 7.640625 -2 L 18.234375 -2.28125 L 18.640625 -6.515625 C 19.816406 -6.628906 20.40625 -6.269531 20.40625 -5.4375 L 20.40625 0 Z M 1.6875 0 "/></g></g></g><g fill="#ffffff" fill-opacity="1"><g transform="translate(113.178437, 171.549994)"><g><path d="M 11 -20.15625 C 12.707031 -20.15625 14.0625 -19.804688 15.0625 -19.109375 C 16.0625 -18.421875 16.5625 -17.503906 16.5625 -16.359375 C 16.5625 -14.890625 15.8125 -14.179688 14.3125 -14.234375 C 14.289062 -15.222656 13.953125 -16.097656 13.296875 -16.859375 C 12.640625 -17.617188 11.660156 -18 10.359375 -18 C 8.460938 -18 7.015625 -17.210938 6.015625 -15.640625 C 5.015625 -14.066406 4.515625 -12.082031 4.515625 -9.6875 C 4.515625 -7.570312 4.929688 -5.753906 5.765625 -4.234375 C 6.722656 -2.554688 8.375 -1.71875 10.71875 -1.71875 C 12.632812 -1.71875 14.460938 -2.425781 16.203125 -3.84375 C 16.546875 -3.601562 16.71875 -3.28125 16.71875 -2.875 C 16.71875 -2.082031 15.957031 -1.304688 14.4375 -0.546875 C 12.914062 0.210938 11.289062 0.59375 9.5625 0.59375 C 7.03125 0.59375 5.078125 -0.285156 3.703125 -2.046875 C 2.328125 -3.804688 1.613281 -6.210938 1.5625 -9.265625 C 1.507812 -12.316406 2.320312 -14.894531 4 -17 C 5.675781 -19.101562 8.007812 -20.15625 11 -20.15625 Z M 11 -20.15625 "/></g></g></g><g fill="#ffffff" fill-opacity="1"><g transform="translate(130.85665, 171.549994)"><g><path d="M 11 -20.15625 C 12.707031 -20.15625 14.0625 -19.804688 15.0625 -19.109375 C 16.0625 -18.421875 16.5625 -17.503906 16.5625 -16.359375 C 16.5625 -14.890625 15.8125 -14.179688 14.3125 -14.234375 C 14.289062 -15.222656 13.953125 -16.097656 13.296875 -16.859375 C 12.640625 -17.617188 11.660156 -18 10.359375 -18 C 8.460938 -18 7.015625 -17.210938 6.015625 -15.640625 C 5.015625 -14.066406 4.515625 -12.082031 4.515625 -9.6875 C 4.515625 -7.570312 4.929688 -5.753906 5.765625 -4.234375 C 6.722656 -2.554688 8.375 -1.71875 10.71875 -1.71875 C 12.632812 -1.71875 14.460938 -2.425781 16.203125 -3.84375 C 16.546875 -3.601562 16.71875 -3.28125 16.71875 -2.875 C 16.71875 -2.082031 15.957031 -1.304688 14.4375 -0.546875 C 12.914062 0.210938 11.289062 0.59375 9.5625 0.59375 C 7.03125 0.59375 5.078125 -0.285156 3.703125 -2.046875 C 2.328125 -3.804688 1.613281 -6.210938 1.5625 -9.265625 C 1.507812 -12.316406 2.320312 -14.894531 4 -17 C 5.675781 -19.101562 8.007812 -20.15625 11 -20.15625 Z M 11 -20.15625 "/></g></g></g><g fill="#ffffff" fill-opacity="1"><g transform="translate(148.534864, 171.549994)"><g><path d="M 10.21875 -18.09375 C 8.394531 -18.082031 6.988281 -17.289062 6 -15.71875 C 5.007812 -14.144531 4.515625 -12.140625 4.515625 -9.703125 C 4.515625 -7.265625 4.992188 -5.273438 5.953125 -3.734375 C 6.921875 -2.203125 8.3125 -1.441406 10.125 -1.453125 C 11.9375 -1.472656 13.332031 -2.242188 14.3125 -3.765625 C 15.300781 -5.285156 15.796875 -7.25 15.796875 -9.65625 C 15.796875 -12.070312 15.320312 -14.085938 14.375 -15.703125 C 13.425781 -17.316406 12.039062 -18.113281 10.21875 -18.09375 Z M 10.4375 -20.15625 C 12.46875 -20.15625 14.296875 -19.515625 15.921875 -18.234375 C 16.773438 -17.546875 17.460938 -16.535156 17.984375 -15.203125 C 18.503906 -13.867188 18.765625 -12.269531 18.765625 -10.40625 C 18.816406 -7.09375 18.039062 -4.429688 16.4375 -2.421875 C 14.84375 -0.410156 12.679688 0.59375 9.953125 0.59375 C 7.234375 0.59375 5.164062 -0.253906 3.75 -1.953125 C 2.34375 -3.660156 1.617188 -6.128906 1.578125 -9.359375 C 1.535156 -12.585938 2.320312 -15.191406 3.9375 -17.171875 C 5.550781 -19.160156 7.71875 -20.15625 10.4375 -20.15625 Z M 10.4375 -20.15625 "/></g></g></g><g fill="#ffffff" fill-opacity="1"><g transform="translate(168.452847, 171.549994)"><g/></g></g><g fill="#ffffff" fill-opacity="1"><g transform="translate(178.771789, 171.549994)"><g><path d="M 19.796875 -27.078125 L 19.796875 -21.71875 C 19.796875 -20.914062 19.210938 -20.570312 18.046875 -20.6875 L 17.59375 -25.046875 L 7.6875 -25.078125 L 7.6875 -14.84375 L 15.359375 -15.359375 C 15.515625 -14.453125 15.515625 -13.492188 15.359375 -12.484375 L 7.6875 -12.921875 L 7.6875 -2 L 11.15625 -1.765625 C 11.257812 -0.585938 10.898438 0 10.078125 0 L 1.6875 0 C 1.6875 0 1.6875 -0.101562 1.6875 -0.3125 C 1.6875 -1.007812 1.867188 -1.46875 2.234375 -1.6875 C 2.421875 -1.757812 2.648438 -1.8125 2.921875 -1.84375 L 4.765625 -1.921875 L 4.765625 -25.078125 L 1.84375 -25.3125 C 1.738281 -26.488281 2.109375 -27.078125 2.953125 -27.078125 Z M 19.796875 -27.078125 "/></g></g></g><g fill="#ffffff" fill-opacity="1"><g transform="translate(198.929755, 171.549994)"><g><path d="M 19.359375 -1.234375 C 19.359375 0.015625 18.53125 0.640625 16.875 0.640625 C 15.226562 0.640625 14.269531 -0.195312 14 -1.875 C 12.289062 -0.226562 10.238281 0.59375 7.84375 0.59375 C 6 0.59375 4.535156 0.125 3.453125 -0.8125 C 2.378906 -1.757812 1.84375 -3.046875 1.84375 -4.671875 C 1.84375 -6.304688 2.441406 -7.679688 3.640625 -8.796875 C 4.835938 -9.921875 6.820312 -10.484375 9.59375 -10.484375 C 11.226562 -10.484375 12.671875 -10.296875 13.921875 -9.921875 L 13.921875 -13.078125 C 13.921875 -14.597656 13.539062 -15.816406 12.78125 -16.734375 C 12.019531 -17.660156 10.90625 -18.125 9.4375 -18.125 C 7.96875 -18.125 6.921875 -17.726562 6.296875 -16.9375 C 5.671875 -16.15625 5.316406 -15.242188 5.234375 -14.203125 C 4.597656 -14.148438 4.066406 -14.28125 3.640625 -14.59375 C 3.210938 -14.914062 3 -15.4375 3 -16.15625 C 3 -17.300781 3.582031 -18.253906 4.75 -19.015625 C 5.925781 -19.773438 7.445312 -20.15625 9.3125 -20.15625 C 10.945312 -20.15625 12.492188 -19.753906 13.953125 -18.953125 C 14.785156 -18.523438 15.453125 -17.816406 15.953125 -16.828125 C 16.460938 -15.847656 16.71875 -14.648438 16.71875 -13.234375 L 16.71875 -1.5625 Z M 13.921875 -7.515625 C 12.691406 -8.179688 11.265625 -8.515625 9.640625 -8.515625 C 8.015625 -8.515625 6.820312 -8.207031 6.0625 -7.59375 C 5.300781 -6.988281 4.921875 -6.148438 4.921875 -5.078125 C 4.921875 -4.015625 5.253906 -3.164062 5.921875 -2.53125 C 6.585938 -1.90625 7.507812 -1.59375 8.6875 -1.59375 C 10.550781 -1.59375 12.296875 -2.316406 13.921875 -3.765625 Z M 13.921875 -7.515625 "/></g></g></g><g fill="#ffffff" fill-opacity="1"><g transform="translate(218.607766, 171.549994)"><g><path d="M 11 -20.15625 C 12.707031 -20.15625 14.0625 -19.804688 15.0625 -19.109375 C 16.0625 -18.421875 16.5625 -17.503906 16.5625 -16.359375 C 16.5625 -14.890625 15.8125 -14.179688 14.3125 -14.234375 C 14.289062 -15.222656 13.953125 -16.097656 13.296875 -16.859375 C 12.640625 -17.617188 11.660156 -18 10.359375 -18 C 8.460938 -18 7.015625 -17.210938 6.015625 -15.640625 C 5.015625 -14.066406 4.515625 -12.082031 4.515625 -9.6875 C 4.515625 -7.570312 4.929688 -5.753906 5.765625 -4.234375 C 6.722656 -2.554688 8.375 -1.71875 10.71875 -1.71875 C 12.632812 -1.71875 14.460938 -2.425781 16.203125 -3.84375 C 16.546875 -3.601562 16.71875 -3.28125 16.71875 -2.875 C 16.71875 -2.082031 15.957031 -1.304688 14.4375 -0.546875 C 12.914062 0.210938 11.289062 0.59375 9.5625 0.59375 C 7.03125 0.59375 5.078125 -0.285156 3.703125 -2.046875 C 2.328125 -3.804688 1.613281 -6.210938 1.5625 -9.265625 C 1.507812 -12.316406 2.320312 -14.894531 4 -17 C 5.675781 -19.101562 8.007812 -20.15625 11 -20.15625 Z M 11 -20.15625 "/></g></g></g><g fill="#ffffff" fill-opacity="1"><g transform="translate(236.285979, 171.549994)"><g><path d="M 9.515625 0 L 1.921875 0 L 1.921875 -0.3125 C 1.921875 -0.957031 2.109375 -1.359375 2.484375 -1.515625 C 2.671875 -1.628906 2.894531 -1.695312 3.15625 -1.71875 L 4.84375 -1.796875 L 4.84375 -17.640625 L 2.765625 -17.796875 C 2.117188 -17.878906 1.796875 -18.453125 1.796875 -19.515625 L 7.59375 -20.15625 L 7.59375 -1.875 L 10.640625 -1.640625 C 10.742188 -0.546875 10.367188 0 9.515625 0 Z M 7.3125 -23.8125 C 6.945312 -23.457031 6.46875 -23.28125 5.875 -23.28125 C 5.289062 -23.28125 4.816406 -23.457031 4.453125 -23.8125 C 4.097656 -24.175781 3.921875 -24.648438 3.921875 -25.234375 C 3.921875 -25.828125 4.097656 -26.304688 4.453125 -26.671875 C 4.816406 -27.046875 5.289062 -27.234375 5.875 -27.234375 C 6.46875 -27.234375 6.945312 -27.046875 7.3125 -26.671875 C 7.6875 -26.304688 7.875 -25.828125 7.875 -25.234375 C 7.875 -24.648438 7.6875 -24.175781 7.3125 -23.8125 Z M 7.3125 -23.8125 "/></g></g></g><g fill="#ffffff" fill-opacity="1"><g transform="translate(247.524832, 171.549994)"><g><path d="M 9.359375 0 L 1.84375 0 L 1.84375 -0.3125 C 1.84375 -1.164062 2.269531 -1.632812 3.125 -1.71875 L 4.84375 -1.796875 L 4.84375 -25.28125 L 2.765625 -25.484375 C 2.117188 -25.554688 1.796875 -26.113281 1.796875 -27.15625 L 7.59375 -27.921875 L 7.59375 -1.875 L 10.4375 -1.640625 C 10.539062 -0.546875 10.179688 0 9.359375 0 Z M 9.359375 0 "/></g></g></g><g fill="#ffffff" fill-opacity="1"><g transform="translate(258.563699, 171.549994)"><g><path d="M 9.515625 0 L 1.921875 0 L 1.921875 -0.3125 C 1.921875 -0.957031 2.109375 -1.359375 2.484375 -1.515625 C 2.671875 -1.628906 2.894531 -1.695312 3.15625 -1.71875 L 4.84375 -1.796875 L 4.84375 -17.640625 L 2.765625 -17.796875 C 2.117188 -17.878906 1.796875 -18.453125 1.796875 -19.515625 L 7.59375 -20.15625 L 7.59375 -1.875 L 10.640625 -1.640625 C 10.742188 -0.546875 10.367188 0 9.515625 0 Z M 7.3125 -23.8125 C 6.945312 -23.457031 6.46875 -23.28125 5.875 -23.28125 C 5.289062 -23.28125 4.816406 -23.457031 4.453125 -23.8125 C 4.097656 -24.175781 3.921875 -24.648438 3.921875 -25.234375 C 3.921875 -25.828125 4.097656 -26.304688 4.453125 -26.671875 C 4.816406 -27.046875 5.289062 -27.234375 5.875 -27.234375 C 6.46875 -27.234375 6.945312 -27.046875 7.3125 -26.671875 C 7.6875 -26.304688 7.875 -25.828125 7.875 -25.234375 C 7.875 -24.648438 7.6875 -24.175781 7.3125 -23.8125 Z M 7.3125 -23.8125 "/></g></g></g><g fill="#ffffff" fill-opacity="1"><g transform="translate(269.802552, 171.549994)"><g><path d="M 6.515625 -17.71875 L 6.515625 -5.953125 C 6.515625 -4.460938 6.679688 -3.382812 7.015625 -2.71875 C 7.347656 -2.050781 7.988281 -1.71875 8.9375 -1.71875 C 9.882812 -1.71875 10.675781 -1.820312 11.3125 -2.03125 C 11.957031 -2.25 12.75 -2.734375 13.6875 -3.484375 C 14.164062 -3.347656 14.40625 -2.945312 14.40625 -2.28125 C 14.40625 -1.613281 13.753906 -0.957031 12.453125 -0.3125 C 11.160156 0.320312 9.914062 0.640625 8.71875 0.640625 C 6.851562 0.640625 5.5625 0.109375 4.84375 -0.953125 C 4.125 -2.023438 3.765625 -3.570312 3.765625 -5.59375 L 3.765625 -17.71875 L 0.84375 -17.71875 C 0.757812 -18.945312 1.144531 -19.5625 2 -19.5625 L 3.765625 -19.5625 L 3.765625 -24.3125 L 6.515625 -25 L 6.515625 -19.5625 L 14 -19.5625 C 14.082031 -18.675781 13.882812 -18.0625 13.40625 -17.71875 Z M 6.515625 -17.71875 "/></g></g></g><g fill="#ffffff" fill-opacity="1"><g transform="translate(284.361072, 171.549994)"><g><path d="M 9.515625 0 L 1.921875 0 L 1.921875 -0.3125 C 1.921875 -0.957031 2.109375 -1.359375 2.484375 -1.515625 C 2.671875 -1.628906 2.894531 -1.695312 3.15625 -1.71875 L 4.84375 -1.796875 L 4.84375 -17.640625 L 2.765625 -17.796875 C 2.117188 -17.878906 1.796875 -18.453125 1.796875 -19.515625 L 7.59375 -20.15625 L 7.59375 -1.875 L 10.640625 -1.640625 C 10.742188 -0.546875 10.367188 0 9.515625 0 Z M 7.3125 -23.8125 C 6.945312 -23.457031 6.46875 -23.28125 5.875 -23.28125 C 5.289062 -23.28125 4.816406 -23.457031 4.453125 -23.8125 C 4.097656 -24.175781 3.921875 -24.648438 3.921875 -25.234375 C 3.921875 -25.828125 4.097656 -26.304688 4.453125 -26.671875 C 4.816406 -27.046875 5.289062 -27.234375 5.875 -27.234375 C 6.46875 -27.234375 6.945312 -27.046875 7.3125 -26.671875 C 7.6875 -26.304688 7.875 -25.828125 7.875 -25.234375 C 7.875 -24.648438 7.6875 -24.175781 7.3125 -23.8125 Z M 7.3125 -23.8125 "/></g></g></g><g fill="#ffffff" fill-opacity="1"><g transform="translate(295.599925, 171.549994)"><g><path d="M 17.203125 -10.515625 L 4.640625 -10.515625 C 4.609375 -10.253906 4.59375 -9.84375 4.59375 -9.28125 C 4.59375 -7.007812 5.070312 -5.175781 6.03125 -3.78125 C 7 -2.382812 8.492188 -1.6875 10.515625 -1.6875 C 12.546875 -1.6875 14.476562 -2.40625 16.3125 -3.84375 C 16.632812 -3.570312 16.796875 -3.238281 16.796875 -2.84375 C 16.796875 -2.09375 16.066406 -1.332031 14.609375 -0.5625 C 13.160156 0.207031 11.53125 0.59375 9.71875 0.59375 C 7.238281 0.59375 5.257812 -0.21875 3.78125 -1.84375 C 2.300781 -3.46875 1.5625 -5.945312 1.5625 -9.28125 C 1.5625 -12.613281 2.441406 -15.257812 4.203125 -17.21875 C 5.960938 -19.175781 8.039062 -20.15625 10.4375 -20.15625 C 12.84375 -20.15625 14.578125 -19.394531 15.640625 -17.875 C 16.703125 -16.351562 17.222656 -14.539062 17.203125 -12.4375 Z M 14.28125 -12.3125 C 14.28125 -14.101562 13.929688 -15.523438 13.234375 -16.578125 C 12.546875 -17.628906 11.539062 -18.15625 10.21875 -18.15625 C 8.894531 -18.15625 7.765625 -17.632812 6.828125 -16.59375 C 5.898438 -15.5625 5.25 -14.132812 4.875 -12.3125 Z M 14.28125 -12.3125 "/></g></g></g><g fill="#ffffff" fill-opacity="1"><g transform="translate(313.638101, 171.549994)"><g><path d="M 1.640625 -14.5625 C 1.671875 -16.289062 2.378906 -17.660156 3.765625 -18.671875 C 5.148438 -19.691406 6.660156 -20.1875 8.296875 -20.15625 C 9.941406 -20.132812 11.296875 -19.847656 12.359375 -19.296875 C 13.421875 -18.753906 13.941406 -17.945312 13.921875 -16.875 C 13.890625 -16.15625 13.632812 -15.632812 13.15625 -15.3125 C 12.675781 -15 12.15625 -14.867188 11.59375 -14.921875 C 11.625 -15.847656 11.335938 -16.601562 10.734375 -17.1875 C 10.140625 -17.78125 9.269531 -18.085938 8.125 -18.109375 C 6.976562 -18.140625 6.023438 -17.878906 5.265625 -17.328125 C 4.503906 -16.785156 4.109375 -16.085938 4.078125 -15.234375 C 4.054688 -14.378906 4.4375 -13.691406 5.21875 -13.171875 C 6.007812 -12.660156 7.125 -12.125 8.5625 -11.5625 C 10 -11 10.976562 -10.585938 11.5 -10.328125 C 12.019531 -10.078125 12.585938 -9.738281 13.203125 -9.3125 C 14.347656 -8.519531 14.898438 -7.304688 14.859375 -5.671875 C 14.816406 -4.046875 14.101562 -2.585938 12.71875 -1.296875 C 11.332031 -0.00390625 9.476562 0.625 7.15625 0.59375 C 5.507812 0.539062 4.054688 0.191406 2.796875 -0.453125 C 1.546875 -1.109375 0.921875 -2.007812 0.921875 -3.15625 C 0.941406 -3.769531 1.144531 -4.253906 1.53125 -4.609375 C 1.925781 -4.972656 2.398438 -5.144531 2.953125 -5.125 C 3.171875 -4.03125 3.710938 -3.148438 4.578125 -2.484375 C 5.441406 -1.816406 6.515625 -1.472656 7.796875 -1.453125 C 9.078125 -1.441406 10.144531 -1.734375 11 -2.328125 C 11.851562 -2.929688 12.289062 -3.726562 12.3125 -4.71875 C 12.34375 -5.707031 12.046875 -6.453125 11.421875 -6.953125 C 10.796875 -7.460938 9.894531 -7.9375 8.71875 -8.375 C 7.539062 -8.820312 6.71875 -9.132812 6.25 -9.3125 C 5.789062 -9.5 5.21875 -9.78125 4.53125 -10.15625 C 3.851562 -10.53125 3.328125 -10.90625 2.953125 -11.28125 C 2.078125 -12.21875 1.640625 -13.3125 1.640625 -14.5625 Z M 1.640625 -14.5625 "/></g></g></g><g fill="#ffffff" fill-opacity="1"><g transform="translate(94.157921, 183.224842)"><g><path d="M 3.203125 -6.609375 C 3.710938 -6.609375 4.140625 -6.488281 4.484375 -6.25 C 4.835938 -6.019531 5.015625 -5.726562 5.015625 -5.375 C 5.015625 -5.019531 4.8125 -4.835938 4.40625 -4.828125 C 4.40625 -5.234375 4.289062 -5.546875 4.0625 -5.765625 C 3.832031 -5.984375 3.519531 -6.09375 3.125 -6.09375 C 2.46875 -6.09375 1.96875 -5.828125 1.625 -5.296875 C 1.28125 -4.765625 1.109375 -4.066406 1.109375 -3.203125 C 1.109375 -1.359375 1.816406 -0.4375 3.234375 -0.4375 C 3.898438 -0.4375 4.472656 -0.628906 4.953125 -1.015625 C 5.035156 -0.972656 5.078125 -0.90625 5.078125 -0.8125 C 5.078125 -0.613281 4.882812 -0.40625 4.5 -0.1875 C 4.113281 0.03125 3.640625 0.140625 3.078125 0.140625 C 2.210938 0.140625 1.550781 -0.140625 1.09375 -0.703125 C 0.632812 -1.265625 0.390625 -2.050781 0.359375 -3.0625 C 0.335938 -4.082031 0.582031 -4.925781 1.09375 -5.59375 C 1.601562 -6.269531 2.304688 -6.609375 3.203125 -6.609375 Z M 3.203125 -6.609375 "/></g></g></g><g fill="#ffffff" fill-opacity="1"><g transform="translate(103.404998, 183.224842)"><g><path d="M 4.828125 -1.328125 L 4.828125 0 L 0.40625 0 L 0.40625 -0.078125 C 0.40625 -0.242188 0.445312 -0.351562 0.53125 -0.40625 C 0.570312 -0.414062 0.628906 -0.425781 0.703125 -0.4375 L 1.140625 -0.453125 L 1.140625 -6 L 0.421875 -6.046875 C 0.390625 -6.335938 0.484375 -6.484375 0.703125 -6.484375 L 2.59375 -6.484375 L 2.59375 -6.40625 C 2.59375 -6.226562 2.550781 -6.125 2.46875 -6.09375 C 2.414062 -6.0625 2.359375 -6.046875 2.296875 -6.046875 L 1.828125 -6.015625 L 1.828125 -0.484375 L 4.3125 -0.53125 L 4.40625 -1.578125 C 4.6875 -1.597656 4.828125 -1.515625 4.828125 -1.328125 Z M 4.828125 -1.328125 "/></g></g></g><g fill="#ffffff" fill-opacity="1"><g transform="translate(112.346827, 183.224842)"><g><path d="M 0.40625 0 L 0.40625 -0.15625 C 0.40625 -0.289062 0.46875 -0.378906 0.59375 -0.421875 C 0.625 -0.429688 0.660156 -0.4375 0.703125 -0.4375 L 1.140625 -0.453125 L 1.140625 -5.984375 L 0.4375 -6.046875 C 0.414062 -6.328125 0.503906 -6.46875 0.703125 -6.46875 L 4.734375 -6.46875 L 4.734375 -5.109375 C 4.734375 -4.921875 4.59375 -4.835938 4.3125 -4.859375 L 4.21875 -5.9375 L 1.828125 -5.984375 L 1.828125 -3.4375 L 3.65625 -3.5625 C 3.695312 -3.320312 3.695312 -3.09375 3.65625 -2.875 L 1.828125 -2.984375 L 1.828125 -0.484375 L 4.359375 -0.546875 L 4.453125 -1.5625 C 4.734375 -1.582031 4.875 -1.492188 4.875 -1.296875 L 4.875 0 Z M 0.40625 0 "/></g></g></g><g fill="#ffffff" fill-opacity="1"><g transform="translate(121.527128, 183.224842)"><g><path d="M 5.453125 0 L 3.625 0 L 3.625 -0.078125 C 3.625 -0.242188 3.664062 -0.351562 3.75 -0.40625 C 3.789062 -0.414062 3.847656 -0.425781 3.921875 -0.4375 L 4.359375 -0.453125 L 3.84375 -2.203125 L 1.828125 -2.203125 L 1.3125 -0.484375 L 2.03125 -0.421875 C 2.0625 -0.140625 1.976562 0 1.78125 0 L 0.109375 0 L 0.109375 -0.078125 C 0.109375 -0.242188 0.148438 -0.351562 0.234375 -0.40625 C 0.285156 -0.414062 0.34375 -0.425781 0.40625 -0.4375 L 0.78125 -0.453125 L 2.625 -6.46875 C 2.832031 -6.5 3.039062 -6.5 3.25 -6.46875 L 5.09375 -0.484375 L 5.703125 -0.421875 C 5.734375 -0.140625 5.648438 0 5.453125 0 Z M 1.96875 -2.6875 L 3.703125 -2.6875 L 2.84375 -5.671875 Z M 1.96875 -2.6875 "/></g></g></g><g fill="#ffffff" fill-opacity="1"><g transform="translate(131.260694, 183.224842)"><g><path d="M 4.609375 -6.46875 L 6.3125 -6.46875 C 6.3125 -6.46875 6.3125 -6.441406 6.3125 -6.390625 C 6.3125 -6.210938 6.265625 -6.109375 6.171875 -6.078125 C 6.128906 -6.046875 6.078125 -6.03125 6.015625 -6.03125 L 5.5625 -6 L 5.5625 -0.109375 C 5.40625 -0.0351562 5.238281 0 5.0625 0 L 1.65625 -5.25 L 1.65625 -0.484375 L 2.359375 -0.421875 C 2.378906 -0.140625 2.289062 0 2.09375 0 L 0.40625 0 C 0.40625 0 0.40625 -0.0234375 0.40625 -0.078125 C 0.40625 -0.242188 0.445312 -0.351562 0.53125 -0.40625 C 0.570312 -0.414062 0.628906 -0.425781 0.703125 -0.4375 L 1.140625 -0.453125 L 1.140625 -5.984375 L 0.4375 -6.046875 C 0.414062 -6.328125 0.503906 -6.46875 0.703125 -6.46875 L 1.703125 -6.46875 L 5.046875 -1.3125 L 5.046875 -5.984375 L 4.359375 -6.046875 C 4.328125 -6.328125 4.410156 -6.46875 4.609375 -6.46875 Z M 4.609375 -6.46875 "/></g></g></g><g fill="#ffffff" fill-opacity="1"><g transform="translate(141.709687, 183.224842)"><g><path d="M 2.265625 0 L 0.40625 0 L 0.40625 -0.078125 C 0.40625 -0.242188 0.445312 -0.351562 0.53125 -0.40625 C 0.570312 -0.414062 0.628906 -0.425781 0.703125 -0.4375 L 1.140625 -0.453125 L 1.140625 -5.984375 L 0.4375 -6.046875 C 0.414062 -6.328125 0.503906 -6.46875 0.703125 -6.46875 L 2.5625 -6.46875 L 2.5625 -6.390625 C 2.5625 -6.210938 2.515625 -6.109375 2.421875 -6.078125 C 2.378906 -6.046875 2.328125 -6.03125 2.265625 -6.03125 L 1.828125 -6 L 1.828125 -0.484375 L 2.515625 -0.421875 C 2.546875 -0.140625 2.460938 0 2.265625 0 Z M 2.265625 0 "/></g></g></g><g fill="#ffffff" fill-opacity="1"><g transform="translate(148.581554, 183.224842)"><g><path d="M 4.609375 -6.46875 L 6.3125 -6.46875 C 6.3125 -6.46875 6.3125 -6.441406 6.3125 -6.390625 C 6.3125 -6.210938 6.265625 -6.109375 6.171875 -6.078125 C 6.128906 -6.046875 6.078125 -6.03125 6.015625 -6.03125 L 5.5625 -6 L 5.5625 -0.109375 C 5.40625 -0.0351562 5.238281 0 5.0625 0 L 1.65625 -5.25 L 1.65625 -0.484375 L 2.359375 -0.421875 C 2.378906 -0.140625 2.289062 0 2.09375 0 L 0.40625 0 C 0.40625 0 0.40625 -0.0234375 0.40625 -0.078125 C 0.40625 -0.242188 0.445312 -0.351562 0.53125 -0.40625 C 0.570312 -0.414062 0.628906 -0.425781 0.703125 -0.4375 L 1.140625 -0.453125 L 1.140625 -5.984375 L 0.4375 -6.046875 C 0.414062 -6.328125 0.503906 -6.46875 0.703125 -6.46875 L 1.703125 -6.46875 L 5.046875 -1.3125 L 5.046875 -5.984375 L 4.359375 -6.046875 C 4.328125 -6.328125 4.410156 -6.46875 4.609375 -6.46875 Z M 4.609375 -6.46875 "/></g></g></g><g fill="#ffffff" fill-opacity="1"><g transform="translate(159.030547, 183.224842)"><g><path d="M 3.828125 -2.921875 L 5.828125 -2.921875 L 5.828125 -2.84375 C 5.828125 -2.625 5.726562 -2.503906 5.53125 -2.484375 L 5.296875 -2.453125 L 5.28125 -2.453125 L 5.28125 -0.671875 C 5.070312 -0.429688 4.753906 -0.234375 4.328125 -0.078125 C 3.910156 0.0664062 3.476562 0.140625 3.03125 0.140625 C 2.207031 0.140625 1.5625 -0.132812 1.09375 -0.6875 C 0.632812 -1.238281 0.390625 -2.03125 0.359375 -3.0625 C 0.335938 -4.101562 0.585938 -4.957031 1.109375 -5.625 C 1.640625 -6.289062 2.382812 -6.625 3.34375 -6.625 C 3.988281 -6.625 4.472656 -6.503906 4.796875 -6.265625 C 5.117188 -6.023438 5.28125 -5.738281 5.28125 -5.40625 C 5.28125 -5.25 5.234375 -5.113281 5.140625 -5 C 5.046875 -4.882812 4.894531 -4.828125 4.6875 -4.828125 C 4.6875 -5.691406 4.195312 -6.125 3.21875 -6.125 C 2.519531 -6.125 1.988281 -5.859375 1.625 -5.328125 C 1.269531 -4.796875 1.09375 -4.09375 1.09375 -3.21875 C 1.09375 -2.34375 1.257812 -1.648438 1.59375 -1.140625 C 1.925781 -0.640625 2.460938 -0.390625 3.203125 -0.390625 C 3.816406 -0.390625 4.296875 -0.535156 4.640625 -0.828125 L 4.640625 -2.4375 L 3.578125 -2.484375 C 3.546875 -2.773438 3.628906 -2.921875 3.828125 -2.921875 Z M 3.828125 -2.921875 "/></g></g></g><g fill="#ffffff" fill-opacity="1"><g transform="translate(168.926276, 183.224842)"><g/></g></g><g fill="#ffffff" fill-opacity="1"><g transform="translate(175.397497, 183.224842)"><g><path d="M 0.1875 -6.46875 L 5.5625 -6.46875 L 5.5625 -5.3125 C 5.5625 -5.113281 5.421875 -5.023438 5.140625 -5.046875 L 5.078125 -5.96875 L 3.234375 -5.96875 L 3.234375 -0.484375 L 3.96875 -0.421875 C 3.988281 -0.140625 3.894531 0 3.6875 0 L 1.796875 0 C 1.796875 0 1.796875 -0.0234375 1.796875 -0.078125 C 1.796875 -0.242188 1.835938 -0.351562 1.921875 -0.40625 C 1.972656 -0.414062 2.03125 -0.425781 2.09375 -0.4375 L 2.546875 -0.453125 L 2.546875 -5.96875 L 0.671875 -5.96875 L 0.609375 -5.046875 C 0.328125 -5.023438 0.1875 -5.113281 0.1875 -5.3125 Z M 0.1875 -6.46875 "/></g></g></g><g fill="#ffffff" fill-opacity="1"><g transform="translate(185.064287, 183.224842)"><g><path d="M 6.109375 0 L 4.265625 0 L 4.265625 -0.078125 C 4.265625 -0.242188 4.304688 -0.351562 4.390625 -0.40625 C 4.429688 -0.414062 4.484375 -0.425781 4.546875 -0.4375 L 4.984375 -0.453125 L 4.984375 -3 L 1.828125 -3 L 1.828125 -0.484375 L 2.515625 -0.421875 C 2.546875 -0.140625 2.460938 0 2.265625 0 L 0.40625 0 L 0.40625 -0.078125 C 0.40625 -0.242188 0.445312 -0.351562 0.53125 -0.40625 C 0.570312 -0.414062 0.628906 -0.425781 0.703125 -0.4375 L 1.140625 -0.453125 L 1.140625 -5.984375 L 0.4375 -6.046875 C 0.414062 -6.328125 0.503906 -6.46875 0.703125 -6.46875 L 2.5625 -6.46875 L 2.5625 -6.390625 C 2.5625 -6.210938 2.515625 -6.109375 2.421875 -6.078125 C 2.378906 -6.046875 2.328125 -6.03125 2.265625 -6.03125 L 1.828125 -6 L 1.828125 -3.46875 L 4.984375 -3.46875 L 4.984375 -5.984375 L 4.296875 -6.046875 C 4.273438 -6.328125 4.359375 -6.46875 4.546875 -6.46875 L 6.40625 -6.46875 L 6.40625 -6.390625 C 6.40625 -6.210938 6.359375 -6.109375 6.265625 -6.078125 C 6.222656 -6.046875 6.171875 -6.03125 6.109375 -6.03125 L 5.6875 -6 L 5.6875 -0.484375 L 6.375 -0.421875 C 6.394531 -0.140625 6.304688 0 6.109375 0 Z M 6.109375 0 "/></g></g></g><g fill="#ffffff" fill-opacity="1"><g transform="translate(195.780373, 183.224842)"><g><path d="M 0.40625 0 L 0.40625 -0.15625 C 0.40625 -0.289062 0.46875 -0.378906 0.59375 -0.421875 C 0.625 -0.429688 0.660156 -0.4375 0.703125 -0.4375 L 1.140625 -0.453125 L 1.140625 -5.984375 L 0.4375 -6.046875 C 0.414062 -6.328125 0.503906 -6.46875 0.703125 -6.46875 L 4.734375 -6.46875 L 4.734375 -5.109375 C 4.734375 -4.921875 4.59375 -4.835938 4.3125 -4.859375 L 4.21875 -5.9375 L 1.828125 -5.984375 L 1.828125 -3.4375 L 3.65625 -3.5625 C 3.695312 -3.320312 3.695312 -3.09375 3.65625 -2.875 L 1.828125 -2.984375 L 1.828125 -0.484375 L 4.359375 -0.546875 L 4.453125 -1.5625 C 4.734375 -1.582031 4.875 -1.492188 4.875 -1.296875 L 4.875 0 Z M 0.40625 0 "/></g></g></g><g fill="#ffffff" fill-opacity="1"><g transform="translate(204.960674, 183.224842)"><g/></g></g><g fill="#ffffff" fill-opacity="1"><g transform="translate(211.431896, 183.224842)"><g><path d="M 4.71875 -6.46875 L 4.71875 -5.1875 C 4.71875 -4.988281 4.582031 -4.90625 4.3125 -4.9375 L 4.203125 -5.96875 L 1.828125 -5.984375 L 1.828125 -3.546875 L 3.671875 -3.671875 C 3.703125 -3.453125 3.703125 -3.222656 3.671875 -2.984375 L 1.828125 -3.078125 L 1.828125 -0.484375 L 2.65625 -0.421875 C 2.6875 -0.140625 2.601562 0 2.40625 0 L 0.40625 0 C 0.40625 0 0.40625 -0.0234375 0.40625 -0.078125 C 0.40625 -0.242188 0.445312 -0.351562 0.53125 -0.40625 C 0.570312 -0.414062 0.628906 -0.425781 0.703125 -0.4375 L 1.140625 -0.453125 L 1.140625 -5.984375 L 0.4375 -6.046875 C 0.414062 -6.328125 0.503906 -6.46875 0.703125 -6.46875 Z M 4.71875 -6.46875 "/></g></g></g><g fill="#ffffff" fill-opacity="1"><g transform="translate(220.249717, 183.224842)"><g><path d="M 4.296875 -6.46875 L 5.953125 -6.46875 C 5.953125 -6.46875 5.953125 -6.441406 5.953125 -6.390625 C 5.953125 -6.210938 5.910156 -6.109375 5.828125 -6.078125 C 5.773438 -6.046875 5.71875 -6.03125 5.65625 -6.03125 L 5.234375 -6 L 5.234375 -2.421875 C 5.234375 -1.609375 5.050781 -0.976562 4.6875 -0.53125 C 4.320312 -0.0820312 3.753906 0.140625 2.984375 0.140625 C 1.609375 0.140625 0.921875 -0.671875 0.921875 -2.296875 L 0.921875 -5.984375 L 0.21875 -6.046875 C 0.195312 -6.328125 0.285156 -6.46875 0.484375 -6.46875 L 2.34375 -6.46875 C 2.34375 -6.46875 2.34375 -6.441406 2.34375 -6.390625 C 2.34375 -6.222656 2.296875 -6.117188 2.203125 -6.078125 C 2.148438 -6.046875 2.09375 -6.03125 2.03125 -6.03125 L 1.609375 -6 L 1.59375 -2.34375 C 1.59375 -1.019531 2.082031 -0.359375 3.0625 -0.359375 C 3.59375 -0.359375 4 -0.515625 4.28125 -0.828125 C 4.570312 -1.148438 4.71875 -1.644531 4.71875 -2.3125 L 4.71875 -5.984375 L 4.03125 -6.046875 C 4 -6.328125 4.085938 -6.46875 4.296875 -6.46875 Z M 4.296875 -6.46875 "/></g></g></g><g fill="#ffffff" fill-opacity="1"><g transform="translate(230.326685, 183.224842)"><g><path d="M 0.1875 -6.46875 L 5.5625 -6.46875 L 5.5625 -5.3125 C 5.5625 -5.113281 5.421875 -5.023438 5.140625 -5.046875 L 5.078125 -5.96875 L 3.234375 -5.96875 L 3.234375 -0.484375 L 3.96875 -0.421875 C 3.988281 -0.140625 3.894531 0 3.6875 0 L 1.796875 0 C 1.796875 0 1.796875 -0.0234375 1.796875 -0.078125 C 1.796875 -0.242188 1.835938 -0.351562 1.921875 -0.40625 C 1.972656 -0.414062 2.03125 -0.425781 2.09375 -0.4375 L 2.546875 -0.453125 L 2.546875 -5.96875 L 0.671875 -5.96875 L 0.609375 -5.046875 C 0.328125 -5.023438 0.1875 -5.113281 0.1875 -5.3125 Z M 0.1875 -6.46875 "/></g></g></g><g fill="#ffffff" fill-opacity="1"><g transform="translate(239.993475, 183.224842)"><g><path d="M 4.296875 -6.46875 L 5.953125 -6.46875 C 5.953125 -6.46875 5.953125 -6.441406 5.953125 -6.390625 C 5.953125 -6.210938 5.910156 -6.109375 5.828125 -6.078125 C 5.773438 -6.046875 5.71875 -6.03125 5.65625 -6.03125 L 5.234375 -6 L 5.234375 -2.421875 C 5.234375 -1.609375 5.050781 -0.976562 4.6875 -0.53125 C 4.320312 -0.0820312 3.753906 0.140625 2.984375 0.140625 C 1.609375 0.140625 0.921875 -0.671875 0.921875 -2.296875 L 0.921875 -5.984375 L 0.21875 -6.046875 C 0.195312 -6.328125 0.285156 -6.46875 0.484375 -6.46875 L 2.34375 -6.46875 C 2.34375 -6.46875 2.34375 -6.441406 2.34375 -6.390625 C 2.34375 -6.222656 2.296875 -6.117188 2.203125 -6.078125 C 2.148438 -6.046875 2.09375 -6.03125 2.03125 -6.03125 L 1.609375 -6 L 1.59375 -2.34375 C 1.59375 -1.019531 2.082031 -0.359375 3.0625 -0.359375 C 3.59375 -0.359375 4 -0.515625 4.28125 -0.828125 C 4.570312 -1.148438 4.71875 -1.644531 4.71875 -2.3125 L 4.71875 -5.984375 L 4.03125 -6.046875 C 4 -6.328125 4.085938 -6.46875 4.296875 -6.46875 Z M 4.296875 -6.46875 "/></g></g></g><g fill="#ffffff" fill-opacity="1"><g transform="translate(250.070443, 183.224842)"><g><path d="M 0.40625 0 L 0.40625 -0.15625 C 0.40625 -0.289062 0.46875 -0.378906 0.59375 -0.421875 C 0.625 -0.429688 0.660156 -0.4375 0.703125 -0.4375 L 1.140625 -0.453125 L 1.140625 -6 L 0.4375 -6.0625 C 0.414062 -6.34375 0.5 -6.484375 0.6875 -6.484375 L 2.78125 -6.484375 C 4.175781 -6.484375 4.875 -5.953125 4.875 -4.890625 C 4.875 -4.367188 4.707031 -3.953125 4.375 -3.640625 C 4.050781 -3.328125 3.617188 -3.125 3.078125 -3.03125 C 3.472656 -2.207031 3.878906 -1.566406 4.296875 -1.109375 C 4.722656 -0.648438 5.09375 -0.421875 5.40625 -0.421875 C 5.394531 -0.253906 5.34375 -0.117188 5.25 -0.015625 C 5.15625 0.0859375 5.039062 0.140625 4.90625 0.140625 C 4.644531 0.140625 4.351562 -0.0234375 4.03125 -0.359375 C 3.414062 -1.015625 2.90625 -1.890625 2.5 -2.984375 L 2.46875 -2.984375 C 2.257812 -2.984375 2.046875 -2.992188 1.828125 -3.015625 L 1.828125 -0.484375 L 2.546875 -0.421875 C 2.578125 -0.140625 2.492188 0 2.296875 0 Z M 1.828125 -6.03125 L 1.828125 -3.453125 C 2.085938 -3.441406 2.273438 -3.4375 2.390625 -3.4375 C 2.960938 -3.4375 3.394531 -3.550781 3.6875 -3.78125 C 3.988281 -4.019531 4.140625 -4.347656 4.140625 -4.765625 C 4.140625 -5.328125 3.960938 -5.695312 3.609375 -5.875 C 3.304688 -6.019531 2.910156 -6.078125 2.421875 -6.046875 L 1.84375 -6.03125 Z M 1.828125 -6.03125 "/></g></g></g><g fill="#ffffff" fill-opacity="1"><g transform="translate(259.489228, 183.224842)"><g><path d="M 0.40625 0 L 0.40625 -0.15625 C 0.40625 -0.289062 0.46875 -0.378906 0.59375 -0.421875 C 0.625 -0.429688 0.660156 -0.4375 0.703125 -0.4375 L 1.140625 -0.453125 L 1.140625 -5.984375 L 0.4375 -6.046875 C 0.414062 -6.328125 0.503906 -6.46875 0.703125 -6.46875 L 4.734375 -6.46875 L 4.734375 -5.109375 C 4.734375 -4.921875 4.59375 -4.835938 4.3125 -4.859375 L 4.21875 -5.9375 L 1.828125 -5.984375 L 1.828125 -3.4375 L 3.65625 -3.5625 C 3.695312 -3.320312 3.695312 -3.09375 3.65625 -2.875 L 1.828125 -2.984375 L 1.828125 -0.484375 L 4.359375 -0.546875 L 4.453125 -1.5625 C 4.734375 -1.582031 4.875 -1.492188 4.875 -1.296875 L 4.875 0 Z M 0.40625 0 "/></g></g></g><g fill="#ffffff" fill-opacity="1"><g transform="translate(268.669529, 183.224842)"><g><path d="M 0.40625 -0.359375 C 0.40625 -0.503906 0.445312 -0.625 0.53125 -0.71875 C 0.625 -0.8125 0.742188 -0.859375 0.890625 -0.859375 C 1.046875 -0.859375 1.171875 -0.8125 1.265625 -0.71875 C 1.359375 -0.625 1.40625 -0.46875 1.40625 -0.25 C 1.40625 -0.03125 1.320312 0.207031 1.15625 0.46875 C 0.988281 0.738281 0.8125 0.914062 0.625 1 C 0.59375 1.007812 0.550781 0.988281 0.5 0.9375 C 0.445312 0.894531 0.421875 0.859375 0.421875 0.828125 C 0.617188 0.691406 0.753906 0.46875 0.828125 0.15625 C 0.703125 0.144531 0.597656 0.09375 0.515625 0 C 0.441406 -0.101562 0.40625 -0.222656 0.40625 -0.359375 Z M 0.40625 -0.359375 "/></g></g></g><g fill="#ffffff" fill-opacity="1"><g transform="translate(274.396713, 183.224842)"><g/></g></g><g fill="#ffffff" fill-opacity="1"><g transform="translate(280.867934, 183.224842)"><g><path d="M 0.1875 -6.46875 L 5.5625 -6.46875 L 5.5625 -5.3125 C 5.5625 -5.113281 5.421875 -5.023438 5.140625 -5.046875 L 5.078125 -5.96875 L 3.234375 -5.96875 L 3.234375 -0.484375 L 3.96875 -0.421875 C 3.988281 -0.140625 3.894531 0 3.6875 0 L 1.796875 0 C 1.796875 0 1.796875 -0.0234375 1.796875 -0.078125 C 1.796875 -0.242188 1.835938 -0.351562 1.921875 -0.40625 C 1.972656 -0.414062 2.03125 -0.425781 2.09375 -0.4375 L 2.546875 -0.453125 L 2.546875 -5.96875 L 0.671875 -5.96875 L 0.609375 -5.046875 C 0.328125 -5.023438 0.1875 -5.113281 0.1875 -5.3125 Z M 0.1875 -6.46875 "/></g></g></g><g fill="#ffffff" fill-opacity="1"><g transform="translate(290.534723, 183.224842)"><g><path d="M 3.078125 -6.09375 C 2.410156 -6.09375 1.910156 -5.832031 1.578125 -5.3125 C 1.242188 -4.800781 1.078125 -4.109375 1.078125 -3.234375 C 1.078125 -2.359375 1.238281 -1.660156 1.5625 -1.140625 C 1.882812 -0.617188 2.378906 -0.359375 3.046875 -0.359375 C 3.710938 -0.367188 4.210938 -0.628906 4.546875 -1.140625 C 4.890625 -1.648438 5.0625 -2.34375 5.0625 -3.21875 C 5.0625 -4.09375 4.894531 -4.789062 4.5625 -5.3125 C 4.238281 -5.84375 3.742188 -6.101562 3.078125 -6.09375 Z M 3.171875 -6.609375 C 3.691406 -6.609375 4.148438 -6.476562 4.546875 -6.21875 C 5.335938 -5.707031 5.738281 -4.769531 5.75 -3.40625 C 5.769531 -2.320312 5.53125 -1.457031 5.03125 -0.8125 C 4.539062 -0.175781 3.832031 0.140625 2.90625 0.140625 C 2.125 0.140625 1.507812 -0.132812 1.0625 -0.6875 C 0.625 -1.25 0.394531 -2.046875 0.375 -3.078125 C 0.351562 -4.109375 0.585938 -4.953125 1.078125 -5.609375 C 1.578125 -6.273438 2.273438 -6.609375 3.171875 -6.609375 Z M 3.171875 -6.609375 "/></g></g></g><g fill="#ffffff" fill-opacity="1"><g transform="translate(300.573526, 183.224842)"><g><path d="M 0.40625 0 L 0.40625 -0.15625 C 0.40625 -0.21875 0.421875 -0.269531 0.453125 -0.3125 C 0.484375 -0.351562 0.507812 -0.378906 0.53125 -0.390625 C 0.550781 -0.398438 0.570312 -0.40625 0.59375 -0.40625 C 0.613281 -0.414062 0.640625 -0.421875 0.671875 -0.421875 L 1.125 -0.46875 L 1.125 -6 L 0.4375 -6.046875 C 0.414062 -6.335938 0.507812 -6.484375 0.71875 -6.484375 L 2.71875 -6.484375 C 3.851562 -6.484375 4.675781 -6.222656 5.1875 -5.703125 C 5.707031 -5.179688 5.96875 -4.378906 5.96875 -3.296875 C 5.96875 -2.222656 5.691406 -1.40625 5.140625 -0.84375 C 4.585938 -0.28125 3.78125 0 2.71875 0 Z M 2.515625 -0.453125 C 3.398438 -0.441406 4.070312 -0.660156 4.53125 -1.109375 C 5 -1.566406 5.234375 -2.285156 5.234375 -3.265625 C 5.234375 -4.253906 4.992188 -4.96875 4.515625 -5.40625 C 4.035156 -5.851562 3.300781 -6.0625 2.3125 -6.03125 L 1.828125 -6.015625 L 1.8125 -6.015625 L 1.8125 -0.46875 Z M 2.515625 -0.453125 "/></g></g></g><g fill="#ffffff" fill-opacity="1"><g transform="translate(310.831734, 183.224842)"><g><path d="M 5.453125 0 L 3.625 0 L 3.625 -0.078125 C 3.625 -0.242188 3.664062 -0.351562 3.75 -0.40625 C 3.789062 -0.414062 3.847656 -0.425781 3.921875 -0.4375 L 4.359375 -0.453125 L 3.84375 -2.203125 L 1.828125 -2.203125 L 1.3125 -0.484375 L 2.03125 -0.421875 C 2.0625 -0.140625 1.976562 0 1.78125 0 L 0.109375 0 L 0.109375 -0.078125 C 0.109375 -0.242188 0.148438 -0.351562 0.234375 -0.40625 C 0.285156 -0.414062 0.34375 -0.425781 0.40625 -0.4375 L 0.78125 -0.453125 L 2.625 -6.46875 C 2.832031 -6.5 3.039062 -6.5 3.25 -6.46875 L 5.09375 -0.484375 L 5.703125 -0.421875 C 5.734375 -0.140625 5.648438 0 5.453125 0 Z M 1.96875 -2.6875 L 3.703125 -2.6875 L 2.84375 -5.671875 Z M 1.96875 -2.6875 "/></g></g></g><g fill="#ffffff" fill-opacity="1"><g transform="translate(320.5653, 183.224842)"><g><path d="M 4.109375 -6.484375 L 5.609375 -6.484375 C 5.609375 -6.484375 5.609375 -6.457031 5.609375 -6.40625 C 5.609375 -6.1875 5.507812 -6.066406 5.3125 -6.046875 L 5.109375 -6.015625 L 3.203125 -2.640625 L 3.203125 -0.484375 L 3.90625 -0.421875 C 3.925781 -0.140625 3.835938 0 3.640625 0 L 1.765625 0 L 1.765625 -0.078125 C 1.765625 -0.242188 1.8125 -0.351562 1.90625 -0.40625 C 1.945312 -0.414062 2.003906 -0.425781 2.078125 -0.4375 L 2.5 -0.453125 L 2.5 -2.609375 L 0.59375 -6 L 0.578125 -6 L 0.046875 -6.046875 C 0.015625 -6.335938 0.101562 -6.484375 0.3125 -6.484375 L 2.09375 -6.484375 L 2.09375 -6.40625 C 2.09375 -6.226562 2.050781 -6.125 1.96875 -6.09375 C 1.925781 -6.0625 1.867188 -6.046875 1.796875 -6.046875 L 1.375 -6.015625 L 2.984375 -3.140625 L 4.53125 -6 L 3.84375 -6.046875 C 3.8125 -6.335938 3.898438 -6.484375 4.109375 -6.484375 Z M 4.109375 -6.484375 "/></g></g></g></svg>