<svg xmlns="http://www.w3.org/2000/svg" xmlns:xlink="http://www.w3.org/1999/xlink" width="500" zoomAndPan="magnify" viewBox="0 0 375 374.999991" height="500" preserveAspectRatio="xMidYMid meet" version="1.0"><defs><g/><clipPath id="a9a2380510"><path d="M 0 0 L 375 0 L 375 375 L 0 375 Z M 0 0 " clip-rule="nonzero"/></clipPath><clipPath id="b8e7d8ff1c"><path d="M 187.5 0 C 83.945312 0 0 83.945312 0 187.5 C 0 291.054688 83.945312 375 187.5 375 C 291.054688 375 375 291.054688 375 187.5 C 375 83.945312 291.054688 0 187.5 0 Z M 187.5 0 " clip-rule="nonzero"/></clipPath><clipPath id="84cfc0952b"><path d="M 0 0 L 375 0 L 375 375 L 0 375 Z M 0 0 " clip-rule="nonzero"/></clipPath><clipPath id="70ef640e64"><path d="M 187.5 0 C 83.945312 0 0 83.945312 0 187.5 C 0 291.054688 83.945312 375 187.5 375 C 291.054688 375 375 291.054688 375 187.5 C 375 83.945312 291.054688 0 187.5 0 Z M 187.5 0 " clip-rule="nonzero"/></clipPath><clipPath id="27435a6bee"><rect x="0" width="375" y="0" height="375"/></clipPath><clipPath id="9ebdf56fed"><path d="M 53 21.195312 L 322 21.195312 L 322 336.9375 L 53 336.9375 Z M 53 21.195312 " clip-rule="nonzero"/></clipPath><clipPath id="f8a779237c"><rect x="0" width="107" y="0" height="141"/></clipPath><clipPath id="64fdcab67f"><rect x="0" width="102" y="0" height="141"/></clipPath><clipPath id="d7a94b4a4c"><rect x="0" width="375" y="0" height="375"/></clipPath></defs><g transform="matrix(1, 0, 0, 1, 0, 0)"><g clip-path="url(#d7a94b4a4c)"><g clip-path="url(#a9a2380510)"><g clip-path="url(#b8e7d8ff1c)"><g transform="matrix(1, 0, 0, 1, 0, 0)"><g clip-path="url(#27435a6bee)"><g clip-path="url(#84cfc0952b)"><g clip-path="url(#70ef640e64)"><rect x="-136.5" width="648" fill="#046307" y="-136.499997" height="647.999984" fill-opacity="1"/></g></g></g></g></g></g><g clip-path="url(#9ebdf56fed)"><path fill="#ffffff" d="M 175.566406 191.066406 C 175.566406 191.066406 175.351562 191.996094 174.9375 193.796875 C 174.710938 194.714844 174.507812 195.792969 174.253906 197.078125 C 173.984375 198.355469 173.734375 199.875 173.457031 201.601562 C 172.351562 208.492188 171.226562 218.78125 171.742188 231.84375 C 172.023438 238.367188 172.695312 245.582031 174.261719 253.25 C 174.984375 257.097656 176.046875 261.019531 177.261719 265.039062 C 178.535156 269.035156 180.109375 273.074219 182.011719 277.09375 C 185.890625 285.058594 191.335938 292.921875 198.957031 298.949219 C 202.769531 301.929688 207.105469 304.40625 211.855469 306.203125 C 213.015625 306.722656 214.257812 307.042969 215.488281 307.429688 L 216.410156 307.710938 L 216.875 307.855469 L 217.105469 307.925781 C 216.851562 307.871094 217.183594 307.941406 217.191406 307.945312 C 217.871094 308.09375 218.554688 308.242188 219.238281 308.394531 C 220.609375 308.6875 221.988281 308.988281 223.375 309.289062 C 224.082031 309.46875 224.726562 309.527344 225.390625 309.621094 C 226.050781 309.710938 226.714844 309.800781 227.382812 309.890625 C 228.71875 310.058594 230.023438 310.292969 231.414062 310.414062 C 232.808594 310.519531 234.214844 310.625 235.625 310.734375 C 236.332031 310.785156 237.042969 310.84375 237.75 310.898438 C 238.46875 310.917969 239.1875 310.941406 239.910156 310.964844 C 241.351562 311.003906 242.800781 311.046875 244.253906 311.089844 C 247.183594 311.113281 250.144531 311.101562 253.144531 311.0625 C 256.171875 310.992188 259.222656 310.921875 262.296875 310.851562 C 265.382812 310.761719 268.523438 310.707031 271.699219 310.664062 C 272.453125 310.652344 273.199219 310.640625 273.953125 310.625 L 275.136719 310.589844 C 275.507812 310.570312 275.722656 310.523438 276.023438 310.503906 C 277.207031 310.367188 278.4375 310.09375 279.453125 309.679688 C 281.519531 308.84375 282.933594 307.488281 283.859375 305.460938 C 284.777344 303.433594 285.101562 300.773438 284.902344 298.054688 C 284.792969 296.699219 284.582031 295.316406 284.226562 294.003906 C 284.183594 293.835938 284.144531 293.671875 284.097656 293.515625 L 283.96875 293.089844 L 283.777344 292.515625 L 283.621094 292.089844 C 283.375 291.441406 283.082031 290.757812 282.769531 290.058594 C 282.136719 288.660156 281.402344 287.207031 280.652344 285.628906 C 280.273438 284.839844 279.886719 284.015625 279.511719 283.09375 C 279.144531 282.132812 278.730469 281.207031 278.488281 279.5 C 278.4375 279.0625 278.398438 278.546875 278.460938 277.871094 C 278.503906 277.523438 278.550781 277.1875 278.683594 276.734375 C 278.792969 276.339844 278.992188 275.851562 279.269531 275.382812 C 279.523438 274.933594 279.933594 274.449219 280.332031 274.074219 C 280.726562 273.730469 281.246094 273.367188 281.636719 273.199219 C 282.199219 272.933594 282.378906 272.882812 282.386719 272.878906 L 282.683594 272.765625 C 282.796875 272.726562 282.875 272.691406 282.90625 272.671875 L 283.046875 272.609375 C 283.121094 272.582031 283.269531 272.5 283.402344 272.4375 C 283.671875 272.3125 283.945312 272.144531 284.210938 272 C 285.277344 271.363281 286.230469 270.570312 286.808594 269.824219 C 287.097656 269.449219 287.316406 269.101562 287.410156 268.8125 C 287.546875 268.511719 287.546875 268.285156 287.558594 268.039062 L 287.546875 267.851562 C 287.550781 267.816406 287.582031 268.03125 287.539062 267.78125 L 287.492188 267.460938 C 287.464844 267.375 287.476562 267.410156 287.441406 267.289062 C 287.417969 267.191406 287.390625 267.09375 287.347656 266.984375 C 287.210938 266.574219 286.992188 266.128906 286.683594 265.625 C 286.371094 265.125 285.980469 264.59375 285.457031 263.914062 C 285.183594 263.558594 284.894531 263.195312 284.492188 262.59375 C 284.285156 262.257812 284.058594 261.925781 283.777344 261.273438 C 283.636719 260.910156 283.492188 260.566406 283.382812 259.925781 C 283.289062 259.390625 283.222656 258.53125 283.472656 257.621094 C 283.683594 256.734375 284.234375 255.835938 284.726562 255.328125 C 285.25 254.761719 285.734375 254.457031 286.101562 254.242188 C 286.496094 254.015625 286.824219 253.875 287.082031 253.78125 L 287.417969 253.652344 L 287.722656 253.539062 L 287.84375 253.476562 L 287.949219 253.433594 L 288.113281 253.34375 C 288.570312 253.109375 289.023438 252.804688 289.417969 252.480469 C 290.199219 251.808594 290.730469 251.078125 290.957031 250.363281 C 291.210938 249.664062 291.222656 248.824219 290.984375 247.886719 C 290.875 247.476562 290.664062 246.847656 290.378906 246.234375 C 290.105469 245.613281 289.738281 244.925781 289.351562 244.207031 L 288.050781 241.816406 C 287.589844 240.945312 287.085938 239.957031 286.644531 238.617188 C 286.429688 237.980469 286.234375 237.148438 286.148438 236.21875 C 286.132812 235.695312 286.105469 235.21875 286.167969 234.652344 C 286.210938 234.359375 286.265625 234.0625 286.324219 233.777344 C 286.457031 233.332031 286.308594 233.535156 286.695312 232.578125 L 286.828125 232.269531 C 286.90625 232.113281 286.847656 232.183594 287.03125 231.847656 C 287.332031 231.285156 287.734375 230.675781 288.097656 230.242188 C 288.390625 229.917969 288.695312 229.601562 289.007812 229.296875 C 289.300781 229.035156 289.59375 228.808594 289.898438 228.570312 C 291.058594 227.730469 292.164062 227.148438 293.171875 226.714844 C 294.191406 226.253906 295.15625 225.90625 296.105469 225.585938 C 297.992188 224.957031 299.789062 224.460938 301.550781 223.980469 L 304.15625 223.273438 L 305.117188 223.015625 C 305.285156 222.96875 304.785156 223.109375 305.152344 223 L 306.113281 222.667969 C 306.242188 222.628906 306.304688 222.597656 306.320312 222.578125 C 306.472656 222.464844 306.597656 222.425781 306.792969 222.3125 L 307.488281 221.867188 C 307.707031 221.683594 307.933594 221.507812 308.160156 221.332031 C 308.367188 221.121094 308.578125 220.914062 308.796875 220.714844 C 309.617188 219.832031 310.324219 218.746094 310.839844 217.566406 C 311.363281 216.394531 311.695312 215.125 311.792969 213.9375 L 311.828125 213.066406 L 311.761719 212.269531 L 311.691406 211.914062 L 311.667969 211.734375 C 311.828125 212.300781 311.652344 211.699219 311.664062 211.742188 L 311.457031 211.089844 C 311.390625 210.886719 311.316406 210.59375 311.261719 210.527344 C 311.140625 210.292969 311.035156 210.050781 310.9375 209.808594 L 310.417969 208.769531 C 310.085938 208.070312 309.621094 207.300781 309.230469 206.570312 C 308.359375 205.066406 307.4375 203.542969 306.476562 201.988281 C 304.558594 198.890625 302.550781 195.722656 300.625 192.398438 C 298.703125 189.0625 296.824219 185.605469 295.304688 181.648438 C 294.90625 180.6875 294.609375 179.578125 294.269531 178.550781 L 293.578125 175.605469 C 293.476562 175.128906 293.355469 174.746094 293.273438 174.1875 L 293.019531 172.582031 C 292.875 171.527344 292.644531 170.402344 292.59375 169.40625 C 292.144531 165.316406 292.230469 161.246094 292.480469 157.246094 C 293.03125 149.253906 294.769531 141.570312 296.027344 134.363281 C 296.332031 132.570312 296.601562 130.808594 296.753906 129.148438 C 296.8125 128.335938 296.917969 127.480469 296.890625 126.75 L 296.894531 126.183594 L 296.898438 125.902344 C 296.902344 125.890625 296.894531 125.53125 296.910156 125.804688 L 296.804688 124.382812 L 296.390625 118.699219 C 296.183594 116.894531 295.882812 115.222656 295.644531 113.480469 C 294.484375 106.507812 292.542969 99.492188 289.765625 92.929688 C 286.902344 86.378906 283.222656 80.207031 278.816406 74.574219 C 274.414062 68.941406 269.296875 63.855469 263.667969 59.382812 C 258.03125 54.917969 251.839844 51.136719 245.375 47.917969 C 238.902344 44.710938 232.125 42.101562 225.1875 40.058594 C 218.242188 38.039062 211.128906 36.632812 203.996094 35.734375 C 189.707031 33.894531 175.246094 34.378906 161.441406 36.902344 C 154.527344 38.152344 147.804688 40.003906 141.375 42.453125 L 138.820312 43.398438 L 137.558594 43.878906 L 136.417969 44.394531 C 134.898438 45.074219 133.382812 45.757812 131.867188 46.433594 C 131.109375 46.746094 130.355469 47.160156 129.605469 47.558594 L 127.347656 48.75 C 125.847656 49.546875 124.320312 50.292969 122.898438 51.222656 C 121.457031 52.105469 120.015625 52.984375 118.585938 53.863281 C 117.164062 54.773438 115.824219 55.789062 114.445312 56.738281 L 112.394531 58.179688 C 111.710938 58.664062 111.085938 59.21875 110.429688 59.738281 C 109.132812 60.785156 107.839844 61.828125 106.546875 62.867188 C 105.304688 63.96875 104.105469 65.109375 102.886719 66.214844 L 101.070312 67.886719 L 99.367188 69.667969 C 98.234375 70.855469 97.105469 72.042969 95.984375 73.222656 C 94.941406 74.472656 93.898438 75.722656 92.863281 76.96875 L 91.308594 78.832031 L 89.886719 80.792969 C 88.941406 82.09375 88 83.394531 87.058594 84.691406 C 86.210938 86.046875 85.359375 87.398438 84.515625 88.746094 L 83.25 90.765625 C 82.84375 91.441406 82.496094 92.15625 82.117188 92.851562 C 81.371094 94.242188 80.628906 95.632812 79.890625 97.019531 C 79.179688 98.414062 78.597656 99.867188 77.945312 101.285156 C 76.574219 104.09375 75.617188 107.046875 74.539062 109.921875 C 73.957031 111.351562 73.625 112.855469 73.175781 114.3125 C 72.765625 115.78125 72.316406 117.234375 71.933594 118.703125 C 71.621094 120.1875 71.308594 121.667969 70.996094 123.140625 L 70.523438 125.339844 L 70.46875 125.617188 C 70.464844 125.613281 70.390625 126.019531 70.445312 125.671875 L 70.359375 126.269531 L 70.191406 127.453125 C 69.964844 129.03125 69.742188 130.605469 69.515625 132.171875 C 69.402344 132.953125 69.289062 133.738281 69.179688 134.519531 C 69.054688 135.304688 69.046875 135.992188 68.976562 136.734375 C 68.863281 138.1875 68.746094 139.636719 68.632812 141.082031 C 68.511719 142.523438 68.371094 143.949219 68.378906 145.441406 C 67.910156 157.21875 68.800781 168.660156 70.707031 179.457031 C 72.648438 190.253906 75.570312 200.359375 79.210938 209.808594 C 79.648438 210.957031 80.082031 212.097656 80.515625 213.230469 C 80.949219 214.363281 81.476562 215.542969 81.945312 216.6875 C 82.925781 218.988281 83.824219 221.238281 84.828125 223.496094 C 86.808594 228.035156 88.734375 232.445312 90.597656 236.71875 C 91.546875 238.847656 92.429688 241.042969 93.3125 243.167969 C 94.1875 245.300781 95.085938 247.363281 95.847656 249.507812 C 96.632812 251.621094 97.40625 253.699219 98.164062 255.738281 C 98.878906 257.808594 99.492188 259.898438 100.136719 261.914062 C 100.453125 262.929688 100.765625 263.929688 101.078125 264.921875 L 101.191406 265.292969 C 101.234375 265.4375 101.183594 265.242188 101.292969 265.660156 L 101.339844 265.835938 L 101.519531 266.546875 C 101.644531 267.019531 101.761719 267.492188 101.882812 267.957031 C 102.355469 269.847656 102.84375 271.621094 103.273438 273.484375 C 104.074219 277.347656 104.914062 281.078125 105.410156 284.492188 C 107.679688 298.285156 108.035156 309.222656 108.136719 316.640625 C 108.230469 320.359375 108.117188 323.195312 108.09375 325.113281 C 108.058594 327.03125 108.035156 328.019531 108.035156 328.019531 C 107.949219 332.652344 104.121094 336.335938 99.488281 336.246094 C 94.851562 336.15625 91.167969 332.324219 91.257812 327.695312 L 91.257812 327.59375 L 91.273438 327.285156 C 91.273438 327.285156 91.304688 326.363281 91.371094 324.582031 C 91.429688 322.800781 91.585938 320.152344 91.554688 316.703125 C 91.601562 309.8125 91.359375 299.671875 89.453125 287.035156 C 89.035156 283.824219 88.34375 280.671875 87.710938 277.285156 C 87.335938 275.550781 86.851562 273.671875 86.410156 271.804688 C 86.296875 271.335938 86.179688 270.867188 86.066406 270.390625 L 85.894531 269.679688 L 85.851562 269.5 C 85.925781 269.796875 85.84375 269.484375 85.847656 269.511719 L 85.746094 269.171875 C 85.472656 268.277344 85.199219 267.375 84.925781 266.464844 C 84.359375 264.640625 83.839844 262.773438 83.207031 260.875 C 82.523438 258.980469 81.824219 257.046875 81.113281 255.078125 C 80.445312 253.113281 79.585938 251.105469 78.777344 249.0625 C 77.949219 247.023438 77.152344 244.953125 76.226562 242.824219 C 74.410156 238.542969 72.53125 234.125 70.597656 229.578125 C 69.617188 227.300781 68.671875 224.886719 67.6875 222.5 C 67.199219 221.28125 66.695312 220.117188 66.21875 218.84375 C 65.746094 217.5625 65.265625 216.273438 64.785156 214.976562 C 61.027344 204.894531 57.925781 193.789062 55.933594 181.992188 C 53.96875 170.199219 53.121094 157.691406 53.761719 144.78125 C 53.773438 143.179688 53.941406 141.519531 54.097656 139.859375 C 54.25 138.199219 54.40625 136.535156 54.5625 134.859375 C 54.648438 134.039062 54.695312 133.144531 54.824219 132.382812 C 54.941406 131.601562 55.0625 130.824219 55.179688 130.039062 C 55.421875 128.476562 55.664062 126.90625 55.90625 125.328125 L 56.089844 124.144531 L 56.179688 123.550781 C 56.269531 123.011719 56.246094 123.226562 56.28125 123.019531 L 56.351562 122.714844 C 56.535156 121.878906 56.71875 121.046875 56.902344 120.210938 C 57.277344 118.546875 57.648438 116.875 58.023438 115.191406 C 58.46875 113.53125 58.992188 111.886719 59.480469 110.21875 C 59.996094 108.570312 60.414062 106.871094 61.078125 105.253906 C 62.320312 101.996094 63.464844 98.667969 65.03125 95.496094 C 65.785156 93.894531 66.476562 92.261719 67.292969 90.683594 C 68.148438 89.117188 69 87.554688 69.859375 85.984375 C 70.300781 85.207031 70.703125 84.40625 71.167969 83.640625 L 72.617188 81.371094 C 73.59375 79.859375 74.570312 78.339844 75.546875 76.820312 C 76.617188 75.367188 77.699219 73.910156 78.777344 72.445312 L 80.40625 70.257812 L 82.175781 68.171875 C 83.359375 66.78125 84.546875 65.386719 85.738281 63.992188 C 87.015625 62.671875 88.296875 61.351562 89.582031 60.027344 L 91.515625 58.054688 L 93.574219 56.191406 C 94.949219 54.953125 96.3125 53.695312 97.71875 52.472656 C 99.175781 51.320312 100.636719 50.167969 102.101562 49.003906 C 102.84375 48.4375 103.558594 47.828125 104.320312 47.292969 L 106.632812 45.695312 C 108.183594 44.644531 109.703125 43.53125 111.296875 42.53125 C 112.910156 41.5625 114.527344 40.597656 116.148438 39.621094 C 117.746094 38.609375 119.453125 37.789062 121.136719 36.914062 L 123.671875 35.609375 C 124.511719 35.179688 125.347656 34.738281 126.261719 34.363281 C 128.050781 33.585938 129.847656 32.808594 131.640625 32.027344 L 132.992188 31.445312 L 134.277344 30.976562 L 136.84375 30.050781 C 144.03125 27.402344 151.527344 25.425781 159.132812 24.128906 C 174.347656 21.503906 190.070312 21.15625 205.609375 23.300781 C 213.375 24.359375 221.113281 25.964844 228.691406 28.253906 C 236.257812 30.570312 243.683594 33.503906 250.804688 37.128906 C 257.921875 40.761719 264.773438 45.039062 271.054688 50.117188 C 277.332031 55.199219 283.070312 61.011719 288.007812 67.46875 C 292.953125 73.917969 297.082031 81.003906 300.257812 88.484375 L 302.390625 94.179688 C 302.773438 95.121094 303.035156 96.101562 303.320312 97.070312 L 304.164062 99.988281 C 304.429688 100.960938 304.769531 101.917969 304.960938 102.910156 L 305.589844 105.867188 C 306 107.847656 306.46875 109.789062 306.691406 111.855469 C 306.953125 113.882812 307.269531 115.96875 307.472656 117.941406 L 307.828125 123.628906 L 307.917969 125.050781 C 307.941406 125.5625 307.921875 125.433594 307.925781 125.660156 L 307.921875 126.09375 L 307.910156 126.945312 C 307.917969 128.121094 307.78125 129.152344 307.695312 130.226562 C 307.476562 132.335938 307.144531 134.320312 306.796875 136.257812 C 306.078125 139.976562 305.359375 143.695312 304.640625 147.402344 C 303.988281 151.011719 303.421875 154.5625 303.160156 158.0625 C 302.90625 161.558594 302.792969 165.023438 303.140625 168.386719 C 303.160156 168.816406 303.199219 169.230469 303.265625 169.605469 L 303.429688 170.773438 L 303.582031 171.941406 C 303.597656 172.128906 303.648438 172.351562 303.703125 172.585938 L 303.855469 173.269531 L 304.410156 175.785156 C 304.667969 176.523438 304.8125 177.234375 305.128906 177.996094 C 306.246094 181.011719 307.875 184.144531 309.621094 187.242188 C 311.382812 190.347656 313.300781 193.453125 315.230469 196.640625 C 316.195312 198.226562 317.164062 199.871094 318.117188 201.550781 C 318.585938 202.441406 319.066406 203.25 319.515625 204.210938 C 319.75 204.691406 319.96875 205.117188 320.207031 205.644531 C 320.460938 206.242188 320.707031 206.851562 320.9375 207.460938 C 321.078125 207.808594 321.105469 207.96875 321.183594 208.203125 L 321.378906 208.859375 C 321.445312 209.121094 321.363281 208.734375 321.558594 209.527344 L 321.644531 210.023438 L 321.804688 211.019531 C 321.882812 211.667969 321.902344 212.308594 321.9375 212.953125 C 321.910156 213.574219 321.898438 214.203125 321.847656 214.820312 C 321.617188 217.269531 320.960938 219.558594 319.992188 221.699219 C 319.015625 223.835938 317.710938 225.832031 316.039062 227.585938 L 314.714844 228.847656 C 314.238281 229.234375 313.746094 229.617188 313.25 229.988281 C 312.734375 230.339844 312.191406 230.664062 311.65625 230.988281 C 311.0625 231.316406 310.351562 231.628906 309.691406 231.914062 C 309.507812 232 309.363281 232.050781 309.277344 232.078125 L 308.316406 232.394531 C 308.464844 232.351562 307.753906 232.578125 307.703125 232.585938 L 306.707031 232.84375 L 304.097656 233.527344 C 302.378906 233.972656 300.710938 234.417969 299.199219 234.910156 C 298.445312 235.15625 297.726562 235.410156 297.117188 235.679688 C 296.476562 235.9375 296.007812 236.226562 295.71875 236.417969 L 295.566406 236.527344 L 295.542969 236.542969 C 295.632812 236.453125 295.796875 236.222656 295.839844 236.027344 C 295.882812 235.863281 295.773438 236.15625 295.75 236.199219 L 295.609375 236.503906 C 295.886719 235.742188 295.746094 236.179688 295.816406 235.949219 L 295.847656 235.722656 C 295.851562 235.601562 295.878906 235.570312 295.851562 235.488281 C 295.859375 235.441406 295.835938 235.484375 295.910156 235.6875 C 296.015625 236.039062 296.28125 236.65625 296.648438 237.347656 L 297.863281 239.632812 C 298.300781 240.472656 298.761719 241.34375 299.195312 242.347656 C 299.632812 243.339844 300.015625 244.371094 300.339844 245.667969 C 300.933594 248.136719 300.917969 250.957031 299.964844 253.554688 C 299.050781 256.15625 297.335938 258.273438 295.453125 259.824219 C 294.492188 260.597656 293.480469 261.25 292.390625 261.800781 L 291.976562 262.007812 L 291.476562 262.222656 L 291.007812 262.417969 L 290.703125 262.53125 C 290.753906 262.511719 290.226562 262.699219 290.429688 262.632812 C 290.480469 262.609375 290.609375 262.554688 290.816406 262.441406 C 291 262.328125 291.296875 262.152344 291.675781 261.746094 C 292.019531 261.390625 292.457031 260.6875 292.621094 260.011719 C 292.808594 259.308594 292.746094 258.675781 292.695312 258.347656 C 292.613281 257.917969 292.554688 257.785156 292.488281 257.621094 C 292.375 257.371094 292.378906 257.40625 292.402344 257.4375 C 292.476562 257.558594 292.710938 257.878906 292.960938 258.214844 C 293.480469 258.910156 294.121094 259.761719 294.710938 260.730469 C 295.296875 261.707031 295.847656 262.808594 296.246094 264.03125 C 296.347656 264.332031 296.4375 264.644531 296.515625 264.960938 C 296.597656 265.257812 296.683594 265.714844 296.746094 266.050781 L 296.792969 266.367188 C 296.792969 266.324219 296.847656 266.753906 296.851562 266.9375 C 296.878906 267.296875 296.894531 267.667969 296.90625 268.027344 C 296.925781 271.011719 295.605469 273.785156 294.066406 275.636719 C 292.503906 277.550781 290.738281 278.882812 288.890625 279.972656 C 288.421875 280.234375 287.960938 280.496094 287.464844 280.730469 C 287.210938 280.851562 286.988281 280.960938 286.671875 281.09375 L 286.226562 281.277344 C 286.0625 281.347656 285.949219 281.394531 285.863281 281.421875 L 285.5625 281.527344 C 285.355469 281.597656 285.359375 281.621094 285.730469 281.449219 C 286.199219 281.238281 286.855469 280.683594 287.175781 280.097656 C 287.347656 279.816406 287.453125 279.515625 287.515625 279.332031 C 287.582031 279.074219 287.601562 278.945312 287.617188 278.808594 C 287.640625 278.550781 287.621094 278.464844 287.621094 278.441406 C 287.597656 278.40625 287.769531 279.078125 288.019531 279.675781 C 288.273438 280.304688 288.582031 281.011719 288.921875 281.734375 C 289.597656 283.183594 290.351562 284.71875 291.074219 286.355469 C 291.4375 287.179688 291.789062 288.03125 292.125 288.929688 L 292.386719 289.679688 L 292.578125 290.28125 L 292.804688 291.050781 C 292.875 291.289062 292.929688 291.523438 292.988281 291.761719 C 293.46875 293.648438 293.746094 295.535156 293.875 297.449219 C 294.097656 301.261719 293.71875 305.285156 291.941406 309.175781 C 291.042969 311.097656 289.773438 312.953125 288.15625 314.460938 C 286.535156 315.96875 284.625 317.105469 282.691406 317.855469 C 280.738281 318.617188 278.832031 319.011719 276.875 319.210938 C 276.386719 319.253906 275.820312 319.308594 275.398438 319.324219 L 274.21875 319.355469 C 273.390625 319.359375 272.570312 319.363281 271.75 319.371094 C 268.648438 319.378906 265.558594 319.40625 262.464844 319.460938 C 259.367188 319.503906 256.292969 319.542969 253.246094 319.582031 C 250.179688 319.589844 247.121094 319.574219 244.09375 319.515625 C 242.570312 319.457031 241.050781 319.402344 239.542969 319.339844 C 238.789062 319.308594 238.035156 319.277344 237.285156 319.25 C 236.53125 319.183594 235.777344 319.117188 235.027344 319.050781 C 233.523438 318.925781 232.03125 318.792969 230.542969 318.664062 C 229.046875 318.523438 227.511719 318.238281 226.015625 318.035156 C 225.261719 317.917969 224.511719 317.804688 223.761719 317.691406 C 223.015625 317.574219 222.246094 317.480469 221.574219 317.304688 C 220.195312 316.992188 218.820312 316.675781 217.453125 316.363281 C 216.773438 316.207031 216.089844 316.050781 215.410156 315.894531 C 215.25 315.851562 215.410156 315.902344 214.984375 315.792969 L 214.71875 315.707031 L 214.183594 315.542969 L 213.121094 315.199219 C 211.707031 314.746094 210.28125 314.347656 208.933594 313.742188 C 203.449219 311.605469 198.410156 308.652344 194.03125 305.15625 C 189.65625 301.640625 185.957031 297.601562 182.847656 293.390625 C 179.753906 289.167969 177.191406 284.78125 175.125 280.375 C 173.085938 275.957031 171.425781 271.566406 170.105469 267.261719 C 168.84375 262.941406 167.757812 258.746094 167.03125 254.664062 C 165.457031 246.515625 164.828125 238.9375 164.601562 232.105469 C 164.199219 218.425781 165.480469 207.71875 166.714844 200.496094 C 167.023438 198.6875 167.304688 197.089844 167.613281 195.699219 C 167.898438 194.308594 168.136719 193.128906 168.363281 192.25 C 168.800781 190.453125 169.023438 189.523438 169.023438 189.523438 C 169.457031 187.71875 171.273438 186.609375 173.078125 187.042969 C 174.871094 187.476562 175.980469 189.273438 175.566406 191.066406 " fill-opacity="1" fill-rule="nonzero"/></g><path fill="#046307" d="M 222.929688 83.480469 C 223.445312 78.09375 211.164062 92.398438 206.019531 97.066406 C 198.886719 103.539062 192.390625 110.753906 184.578125 116.4375 C 171.460938 125.976562 174.128906 144.148438 186.511719 155.640625 C 201.679688 169.71875 222.402344 170.472656 228.695312 146.675781 C 229.605469 143.222656 230.15625 139.515625 229.910156 135.941406 C 229.402344 128.628906 225.238281 121.621094 224.019531 114.292969 C 223.160156 109.144531 222.59375 103.648438 223.042969 98.300781 C 223.515625 92.777344 222.414062 89.003906 222.929688 83.480469 " fill-opacity="1" fill-rule="nonzero"/><path fill="#ffffff" d="M 226.988281 122.242188 C 232.523438 141.964844 230.765625 166.441406 202.035156 164.207031 C 199.675781 164.023438 197.410156 163.507812 195.199219 162.828125 C 195.71875 161.359375 196.199219 159.902344 196.617188 158.519531 C 198.375 152.714844 200.058594 146.867188 201.859375 141.066406 C 204.417969 132.832031 212.40625 120.488281 213.886719 112.230469 C 214.046875 111.316406 210.507812 115.578125 209.992188 116.285156 C 199.871094 130.332031 197.554688 138.660156 195.109375 149.820312 C 194.199219 153.980469 193.15625 157.917969 191.824219 161.652344 C 188.441406 160.152344 185.347656 158.035156 182.71875 155.238281 C 174.605469 146.613281 170.242188 134.324219 177.253906 123.679688 C 184.265625 113.03125 196.667969 106.960938 206.980469 100.085938 C 209.984375 98.085938 212.9375 96.011719 215.832031 93.867188 C 217.359375 92.726562 223.984375 84.585938 224.375 82.8125 C 221.773438 94.632812 223.65625 110.382812 226.988281 122.242188 Z M 228.253906 69.417969 C 220.605469 79.578125 221.25 81.414062 210.992188 89.582031 C 201.234375 97.351562 190.242188 103.75 182.191406 113.40625 C 176.804688 119.859375 171.257812 126.664062 170.625 134.363281 C 170.125 140.449219 172.816406 146.179688 175.230469 151.59375 C 178.109375 158.0625 183.523438 163.332031 189.632812 166.996094 C 186.957031 172.523438 183.242188 177.472656 177.585938 181.722656 C 177.011719 182.15625 177.492188 182.925781 178.132812 182.78125 C 185.28125 181.207031 189.769531 175.234375 192.835938 168.652344 C 203.457031 173.261719 220.101562 170.703125 227.199219 161.550781 C 234.945312 151.566406 236.519531 139.363281 233.625 127.179688 C 230.832031 115.425781 229.796875 103.320312 229.476562 91.269531 C 229.289062 84.15625 229.734375 76.785156 228.753906 69.574219 C 228.71875 69.34375 228.414062 69.207031 228.253906 69.417969 " fill-opacity="1" fill-rule="nonzero"/><path fill="#046307" d="M 116.558594 138.546875 C 112.671875 138.953125 108.773438 139.332031 104.832031 139.441406 C 103.457031 139.472656 103.164062 141.492188 104.375 142.019531 C 109.566406 144.28125 113.773438 147.425781 117.75 150.832031 C 120.113281 155.101562 124.980469 156.671875 128.195312 160.085938 C 132 164.128906 134.75 167.933594 139.929688 170.5 C 145.371094 173.203125 149.570312 172.644531 155.417969 170.71875 C 165.222656 167.5 168.308594 158.226562 165.550781 149.082031 C 161.941406 137.121094 148.65625 134.703125 138.585938 134.121094 C 131.507812 133.710938 124.179688 137.738281 117.136719 138.488281 C 116.953125 138.515625 116.738281 138.503906 116.558594 138.546875 " fill-opacity="1" fill-rule="nonzero"/><path fill="#ffffff" d="M 97.394531 140.488281 C 110.527344 150.578125 121.507812 163.324219 135.414062 172.46875 C 146.648438 179.851562 155.910156 174.277344 165.0625 166.492188 C 165.140625 166.429688 165.105469 166.308594 165 166.316406 C 153.371094 167.023438 144.347656 177.972656 133.488281 167.132812 C 126.011719 159.679688 117.652344 148.691406 108.28125 143.585938 C 105.628906 142.140625 102.8125 140.359375 100.15625 138.785156 C 99.191406 138.210938 104.992188 139.4375 106.300781 139.371094 C 112.078125 139.09375 117.398438 137.425781 122.976562 136.132812 C 133.382812 133.71875 143.320312 131.503906 153.492188 136.558594 C 157.761719 138.675781 164.117188 144.074219 165.746094 147.808594 C 166.84375 150.335938 166.3125 156.640625 166.972656 160.175781 C 167.449219 162.785156 171.109375 163.171875 171.707031 160.402344 C 175.097656 144.707031 163.136719 134.773438 149.625 130.203125 C 133.554688 124.769531 113.789062 135.386719 98.066406 138.347656 C 97.09375 138.527344 96.472656 139.78125 97.394531 140.488281 " fill-opacity="1" fill-rule="nonzero"/><path fill="#ffffff" d="M 131.214844 148.160156 C 138.207031 156.132812 159.074219 147.976562 170.167969 165.15625 C 174.808594 172.347656 175.90625 174.195312 175.90625 181.078125 C 175.90625 182.007812 174.882812 181.964844 174.773438 181.335938 C 174.625 180.496094 174.273438 179.464844 173.519531 177.15625 C 172.171875 173.007812 170.898438 170.605469 168.15625 167.148438 C 166.144531 164.605469 164.171875 161.976562 161.128906 160.683594 C 158.65625 159.632812 156.089844 158.917969 153.503906 158.203125 C 147.640625 156.589844 141.5 155.46875 135.957031 152.886719 C 133.933594 151.945312 131.464844 150.671875 130.515625 148.507812 C 130.320312 148.058594 130.953125 147.859375 131.214844 148.160156 " fill-opacity="1" fill-rule="nonzero"/><g transform="matrix(1, 0, 0, 1, 100, 168)"><g clip-path="url(#f8a779237c)"><g fill="#ffffff" fill-opacity="1"><g transform="translate(4.249112, 90.080426)"><g><path d="M 4.015625 0 L 4.015625 -1.53125 C 4.015625 -2.9375 4.648438 -3.828125 5.921875 -4.203125 C 6.242188 -4.328125 6.597656 -4.390625 6.984375 -4.390625 L 11.375 -4.59375 L 11.375 -59.953125 L 4.390625 -60.515625 C 4.140625 -63.328125 5.035156 -64.734375 7.078125 -64.734375 L 47.421875 -64.734375 L 47.421875 -51.25 C 47.421875 -49.269531 46.019531 -48.410156 43.21875 -48.671875 L 42.265625 -59.46875 L 18.265625 -59.953125 L 18.265625 -34.421875 L 36.625 -35.65625 C 37.0625 -33.300781 37.0625 -31.007812 36.625 -28.78125 L 18.265625 -29.828125 L 18.265625 -4.78125 L 43.59375 -5.453125 L 44.546875 -15.578125 C 47.359375 -15.835938 48.765625 -14.976562 48.765625 -13 L 48.765625 0 Z M 4.015625 0 "/></g></g></g></g></g><g transform="matrix(1, 0, 0, 1, 178, 168)"><g clip-path="url(#64fdcab67f)"><g fill="#ffffff" fill-opacity="1"><g transform="translate(6.312453, 90.080426)"><g><path d="M 47.328125 -64.734375 L 47.328125 -51.921875 C 47.328125 -50.003906 45.925781 -49.175781 43.125 -49.4375 L 42.0625 -59.84375 L 18.359375 -59.953125 L 18.359375 -35.46875 L 36.71875 -36.71875 C 37.09375 -34.550781 37.09375 -32.253906 36.71875 -29.828125 L 18.359375 -30.875 L 18.359375 -4.78125 L 26.671875 -4.203125 C 26.929688 -1.398438 26.070312 0 24.09375 0 L 4.015625 0 C 4.015625 0 4.015625 -0.253906 4.015625 -0.765625 C 4.015625 -2.421875 4.460938 -3.503906 5.359375 -4.015625 C 5.796875 -4.203125 6.335938 -4.328125 6.984375 -4.390625 L 11.375 -4.59375 L 11.375 -59.953125 L 4.390625 -60.515625 C 4.140625 -63.328125 5.035156 -64.734375 7.078125 -64.734375 Z M 47.328125 -64.734375 "/></g></g></g></g></g></g></g></svg>